<mxfile host="65bd71144e">
    <diagram id="8Sc09e7jmbgoqr3F-YoG" name="Page-1">
        <mxGraphModel dx="3520" dy="933" grid="1" gridSize="10" guides="1" tooltips="1" connect="1" arrows="1" fold="1" page="0" pageScale="1" pageWidth="850" pageHeight="1100" background="#333333" math="0" shadow="0">
            <root>
                <mxCell id="0"/>
                <mxCell id="1" parent="0"/>
                <mxCell id="7" value="&lt;h1&gt;DB&lt;/h1&gt;" style="rounded=0;whiteSpace=wrap;html=1;fillColor=#999999;" parent="1" vertex="1">
                    <mxGeometry x="-1780" y="-140" width="120" height="60" as="geometry"/>
                </mxCell>
                <mxCell id="10" value="" style="endArrow=classic;html=1;exitX=0.5;exitY=1;exitDx=0;exitDy=0;entryX=0.5;entryY=0;entryDx=0;entryDy=0;edgeStyle=orthogonalEdgeStyle;" parent="1" source="7" target="29" edge="1">
                    <mxGeometry width="50" height="50" relative="1" as="geometry">
                        <mxPoint x="-1560" y="20" as="sourcePoint"/>
                        <mxPoint x="-1720" y="100" as="targetPoint"/>
                    </mxGeometry>
                </mxCell>
                <mxCell id="11" value="" style="endArrow=classic;html=1;exitX=0.5;exitY=1;exitDx=0;exitDy=0;entryX=0.5;entryY=0;entryDx=0;entryDy=0;edgeStyle=orthogonalEdgeStyle;" parent="1" source="7" target="380" edge="1">
                    <mxGeometry width="50" height="50" relative="1" as="geometry">
                        <mxPoint x="-1560" y="20" as="sourcePoint"/>
                        <mxPoint x="-1830.0000000000002" y="99.99999999999977" as="targetPoint"/>
                    </mxGeometry>
                </mxCell>
                <mxCell id="12" value="" style="endArrow=classic;html=1;entryX=0.5;entryY=0;entryDx=0;entryDy=0;exitX=0.5;exitY=1;exitDx=0;exitDy=0;edgeStyle=orthogonalEdgeStyle;" parent="1" source="7" target="17" edge="1">
                    <mxGeometry width="50" height="50" relative="1" as="geometry">
                        <mxPoint x="-1560" y="20" as="sourcePoint"/>
                        <mxPoint x="-2160" y="100" as="targetPoint"/>
                    </mxGeometry>
                </mxCell>
                <mxCell id="17" value="&lt;b&gt;&lt;i&gt;Accounts:&lt;/i&gt;&lt;/b&gt;" style="swimlane;fontStyle=0;childLayout=stackLayout;horizontal=1;startSize=30;horizontalStack=0;resizeParent=1;resizeParentMax=0;resizeLast=0;collapsible=1;marginBottom=0;whiteSpace=wrap;html=1;fillColor=#999999;" parent="1" vertex="1">
                    <mxGeometry x="-2120" y="100" width="140" height="180" as="geometry"/>
                </mxCell>
                <mxCell id="18" value="email - Email" style="text;strokeColor=none;fillColor=#CCCCCC;align=left;verticalAlign=middle;spacingLeft=4;spacingRight=4;overflow=hidden;points=[[0,0.5],[1,0.5]];portConstraint=eastwest;rotatable=0;whiteSpace=wrap;html=1;" parent="17" vertex="1">
                    <mxGeometry y="30" width="140" height="30" as="geometry"/>
                </mxCell>
                <mxCell id="19" value="password - Password" style="text;strokeColor=none;fillColor=#CCCCCC;align=left;verticalAlign=middle;spacingLeft=4;spacingRight=4;overflow=hidden;points=[[0,0.5],[1,0.5]];portConstraint=eastwest;rotatable=0;whiteSpace=wrap;html=1;" parent="17" vertex="1">
                    <mxGeometry y="60" width="140" height="30" as="geometry"/>
                </mxCell>
                <mxCell id="71" value="userid - String" style="text;strokeColor=none;fillColor=#CCCCCC;align=left;verticalAlign=middle;spacingLeft=4;spacingRight=4;overflow=hidden;points=[[0,0.5],[1,0.5]];portConstraint=eastwest;rotatable=0;whiteSpace=wrap;html=1;" parent="17" vertex="1">
                    <mxGeometry y="90" width="140" height="30" as="geometry"/>
                </mxCell>
                <mxCell id="273" value="username - String" style="text;strokeColor=none;fillColor=#CCCCCC;align=left;verticalAlign=middle;spacingLeft=4;spacingRight=4;overflow=hidden;points=[[0,0.5],[1,0.5]];portConstraint=eastwest;rotatable=0;whiteSpace=wrap;html=1;" parent="17" vertex="1">
                    <mxGeometry y="120" width="140" height="30" as="geometry"/>
                </mxCell>
                <mxCell id="379" value="IsAdmin - bool" style="text;strokeColor=none;fillColor=#CCCCCC;align=left;verticalAlign=middle;spacingLeft=4;spacingRight=4;overflow=hidden;points=[[0,0.5],[1,0.5]];portConstraint=eastwest;rotatable=0;whiteSpace=wrap;html=1;" parent="17" vertex="1">
                    <mxGeometry y="150" width="140" height="30" as="geometry"/>
                </mxCell>
                <mxCell id="29" value="&lt;b&gt;&lt;i&gt;RoomModels&lt;/i&gt;&lt;/b&gt;" style="swimlane;fontStyle=0;childLayout=stackLayout;horizontal=1;startSize=30;horizontalStack=0;resizeParent=1;resizeParentMax=0;resizeLast=0;collapsible=1;marginBottom=0;whiteSpace=wrap;html=1;fillColor=#999999;" parent="1" vertex="1">
                    <mxGeometry x="-1680" y="100" width="140" height="150" as="geometry"/>
                </mxCell>
                <mxCell id="30" value="Model - Model" style="text;strokeColor=none;fillColor=#CCCCCC;align=left;verticalAlign=middle;spacingLeft=4;spacingRight=4;overflow=hidden;points=[[0,0.5],[1,0.5]];portConstraint=eastwest;rotatable=0;whiteSpace=wrap;html=1;" parent="29" vertex="1">
                    <mxGeometry y="30" width="140" height="30" as="geometry"/>
                </mxCell>
                <mxCell id="387" value="Size - int" style="text;strokeColor=none;fillColor=#CCCCCC;align=left;verticalAlign=middle;spacingLeft=4;spacingRight=4;overflow=hidden;points=[[0,0.5],[1,0.5]];portConstraint=eastwest;rotatable=0;whiteSpace=wrap;html=1;" parent="29" vertex="1">
                    <mxGeometry y="60" width="140" height="30" as="geometry"/>
                </mxCell>
                <mxCell id="31" value="Rotations[] - String[]" style="text;strokeColor=none;fillColor=#CCCCCC;align=left;verticalAlign=middle;spacingLeft=4;spacingRight=4;overflow=hidden;points=[[0,0.5],[1,0.5]];portConstraint=eastwest;rotatable=0;whiteSpace=wrap;html=1;" parent="29" vertex="1">
                    <mxGeometry y="90" width="140" height="30" as="geometry"/>
                </mxCell>
                <mxCell id="32" value="AXIS[] - String[]" style="text;strokeColor=none;fillColor=#CCCCCC;align=left;verticalAlign=middle;spacingLeft=4;spacingRight=4;overflow=hidden;points=[[0,0.5],[1,0.5]];portConstraint=eastwest;rotatable=0;whiteSpace=wrap;html=1;" parent="29" vertex="1">
                    <mxGeometry y="120" width="140" height="30" as="geometry"/>
                </mxCell>
                <mxCell id="37" value="" style="endArrow=classic;html=1;exitX=0.5;exitY=1;exitDx=0;exitDy=0;entryX=0.5;entryY=0;entryDx=0;entryDy=0;edgeStyle=orthogonalEdgeStyle;" parent="1" source="7" target="25" edge="1">
                    <mxGeometry width="50" height="50" relative="1" as="geometry">
                        <mxPoint x="-1720" y="-80" as="sourcePoint"/>
                        <mxPoint x="-1500" y="100" as="targetPoint"/>
                    </mxGeometry>
                </mxCell>
                <mxCell id="25" value="&lt;b&gt;&lt;i&gt;Model&lt;/i&gt;&lt;/b&gt;" style="swimlane;fontStyle=0;childLayout=stackLayout;horizontal=1;startSize=30;horizontalStack=0;resizeParent=1;resizeParentMax=0;resizeLast=0;collapsible=1;marginBottom=0;whiteSpace=wrap;html=1;fillColor=#999999;" parent="1" vertex="1">
                    <mxGeometry x="-1460" y="100" width="140" height="360" as="geometry"/>
                </mxCell>
                <mxCell id="26" value="Name - String" style="text;strokeColor=none;fillColor=#CCCCCC;align=left;verticalAlign=middle;spacingLeft=4;spacingRight=4;overflow=hidden;points=[[0,0.5],[1,0.5]];portConstraint=eastwest;rotatable=0;whiteSpace=wrap;html=1;" parent="25" vertex="1">
                    <mxGeometry y="30" width="140" height="30" as="geometry"/>
                </mxCell>
                <mxCell id="38" value="Description - String" style="text;strokeColor=none;fillColor=#CCCCCC;align=left;verticalAlign=middle;spacingLeft=4;spacingRight=4;overflow=hidden;points=[[0,0.5],[1,0.5]];portConstraint=eastwest;rotatable=0;whiteSpace=wrap;html=1;" parent="25" vertex="1">
                    <mxGeometry y="60" width="140" height="30" as="geometry"/>
                </mxCell>
                <mxCell id="27" value="Model File- File Location" style="text;strokeColor=none;fillColor=#CCCCCC;align=left;verticalAlign=middle;spacingLeft=4;spacingRight=4;overflow=hidden;points=[[0,0.5],[1,0.5]];portConstraint=eastwest;rotatable=0;whiteSpace=wrap;html=1;" parent="25" vertex="1">
                    <mxGeometry y="90" width="140" height="30" as="geometry"/>
                </mxCell>
                <mxCell id="390" value="AXIS[] - String[]" style="text;strokeColor=none;fillColor=#CCCCCC;align=left;verticalAlign=middle;spacingLeft=4;spacingRight=4;overflow=hidden;points=[[0,0.5],[1,0.5]];portConstraint=eastwest;rotatable=0;whiteSpace=wrap;html=1;" parent="25" vertex="1">
                    <mxGeometry y="120" width="140" height="30" as="geometry"/>
                </mxCell>
                <mxCell id="389" value="Rotations[] - String[]" style="text;strokeColor=none;fillColor=#CCCCCC;align=left;verticalAlign=middle;spacingLeft=4;spacingRight=4;overflow=hidden;points=[[0,0.5],[1,0.5]];portConstraint=eastwest;rotatable=0;whiteSpace=wrap;html=1;" parent="25" vertex="1">
                    <mxGeometry y="150" width="140" height="30" as="geometry"/>
                </mxCell>
                <mxCell id="388" value="Size - int" style="text;strokeColor=none;fillColor=#CCCCCC;align=left;verticalAlign=middle;spacingLeft=4;spacingRight=4;overflow=hidden;points=[[0,0.5],[1,0.5]];portConstraint=eastwest;rotatable=0;whiteSpace=wrap;html=1;" parent="25" vertex="1">
                    <mxGeometry y="180" width="140" height="30" as="geometry"/>
                </mxCell>
                <mxCell id="28" value="Img - Img" style="text;strokeColor=none;fillColor=#CCCCCC;align=left;verticalAlign=middle;spacingLeft=4;spacingRight=4;overflow=hidden;points=[[0,0.5],[1,0.5]];portConstraint=eastwest;rotatable=0;whiteSpace=wrap;html=1;" parent="25" vertex="1">
                    <mxGeometry y="210" width="140" height="30" as="geometry"/>
                </mxCell>
                <mxCell id="255" value="Tags - Array[String]" style="text;strokeColor=none;fillColor=#CCCCCC;align=left;verticalAlign=middle;spacingLeft=4;spacingRight=4;overflow=hidden;points=[[0,0.5],[1,0.5]];portConstraint=eastwest;rotatable=0;whiteSpace=wrap;html=1;" parent="25" vertex="1">
                    <mxGeometry y="240" width="140" height="30" as="geometry"/>
                </mxCell>
                <mxCell id="251" value="Listed - bool" style="text;strokeColor=none;fillColor=#CCCCCC;align=left;verticalAlign=middle;spacingLeft=4;spacingRight=4;overflow=hidden;points=[[0,0.5],[1,0.5]];portConstraint=eastwest;rotatable=0;whiteSpace=wrap;html=1;" parent="25" vertex="1">
                    <mxGeometry y="270" width="140" height="30" as="geometry"/>
                </mxCell>
                <mxCell id="392" value="Sizes - []" style="text;strokeColor=none;fillColor=#CCCCCC;align=left;verticalAlign=middle;spacingLeft=4;spacingRight=4;overflow=hidden;points=[[0,0.5],[1,0.5]];portConstraint=eastwest;rotatable=0;whiteSpace=wrap;html=1;" parent="25" vertex="1">
                    <mxGeometry y="300" width="140" height="30" as="geometry"/>
                </mxCell>
                <mxCell id="393" value="initalRotations[] - String[]" style="text;strokeColor=none;fillColor=#CCCCCC;align=left;verticalAlign=middle;spacingLeft=4;spacingRight=4;overflow=hidden;points=[[0,0.5],[1,0.5]];portConstraint=eastwest;rotatable=0;whiteSpace=wrap;html=1;" parent="25" vertex="1">
                    <mxGeometry y="330" width="140" height="30" as="geometry"/>
                </mxCell>
                <mxCell id="39" value="&lt;h1&gt;Server&lt;/h1&gt;" style="rounded=0;whiteSpace=wrap;html=1;fillColor=#999999;" parent="1" vertex="1">
                    <mxGeometry x="1360" y="-180" width="120" height="60" as="geometry"/>
                </mxCell>
                <mxCell id="40" value="" style="endArrow=classic;html=1;exitX=0.5;exitY=1;exitDx=0;exitDy=0;entryX=0.5;entryY=0;entryDx=0;entryDy=0;edgeStyle=orthogonalEdgeStyle;entryPerimeter=0;" parent="1" source="39" target="118" edge="1">
                    <mxGeometry width="50" height="50" relative="1" as="geometry">
                        <mxPoint x="1580" y="-20" as="sourcePoint"/>
                        <mxPoint x="1860" y="60" as="targetPoint"/>
                    </mxGeometry>
                </mxCell>
                <mxCell id="41" value="" style="endArrow=classic;html=1;exitX=0.5;exitY=1;exitDx=0;exitDy=0;entryX=0.5;entryY=0;entryDx=0;entryDy=0;edgeStyle=orthogonalEdgeStyle;" parent="1" source="39" target="51" edge="1">
                    <mxGeometry width="50" height="50" relative="1" as="geometry">
                        <mxPoint x="1580" y="-20" as="sourcePoint"/>
                        <mxPoint x="1420" y="60" as="targetPoint"/>
                    </mxGeometry>
                </mxCell>
                <mxCell id="42" value="" style="endArrow=classic;html=1;exitX=0.5;exitY=1;exitDx=0;exitDy=0;entryX=0.5;entryY=0;entryDx=0;entryDy=0;edgeStyle=orthogonalEdgeStyle;" parent="1" source="39" target="55" edge="1">
                    <mxGeometry width="50" height="50" relative="1" as="geometry">
                        <mxPoint x="1580" y="-20" as="sourcePoint"/>
                        <mxPoint x="1200" y="60" as="targetPoint"/>
                    </mxGeometry>
                </mxCell>
                <mxCell id="43" value="" style="endArrow=classic;html=1;entryX=0.5;entryY=0;entryDx=0;entryDy=0;exitX=0.5;exitY=1;exitDx=0;exitDy=0;edgeStyle=orthogonalEdgeStyle;" parent="1" source="39" target="44" edge="1">
                    <mxGeometry width="50" height="50" relative="1" as="geometry">
                        <mxPoint x="1580" y="-20" as="sourcePoint"/>
                        <mxPoint x="980" y="60" as="targetPoint"/>
                    </mxGeometry>
                </mxCell>
                <mxCell id="44" value="&lt;b&gt;&lt;i&gt;Login:&lt;/i&gt;&lt;/b&gt;" style="swimlane;fontStyle=0;childLayout=stackLayout;horizontal=1;startSize=30;horizontalStack=0;resizeParent=1;resizeParentMax=0;resizeLast=0;collapsible=1;marginBottom=0;whiteSpace=wrap;html=1;fillColor=#999999;" parent="1" vertex="1">
                    <mxGeometry x="740" y="40" width="140" height="90" as="geometry"/>
                </mxCell>
                <mxCell id="45" value="email/username -&amp;nbsp;&lt;span style=&quot;color: rgb(0, 0, 0);&quot;&gt;String&lt;/span&gt;" style="text;strokeColor=none;fillColor=#CCCCCC;align=left;verticalAlign=middle;spacingLeft=4;spacingRight=4;overflow=hidden;points=[[0,0.5],[1,0.5]];portConstraint=eastwest;rotatable=0;whiteSpace=wrap;html=1;" parent="44" vertex="1">
                    <mxGeometry y="30" width="140" height="30" as="geometry"/>
                </mxCell>
                <mxCell id="46" value="password -&amp;nbsp;&lt;span style=&quot;color: rgb(0, 0, 0);&quot;&gt;String&lt;/span&gt;" style="text;strokeColor=none;fillColor=#CCCCCC;align=left;verticalAlign=middle;spacingLeft=4;spacingRight=4;overflow=hidden;points=[[0,0.5],[1,0.5]];portConstraint=eastwest;rotatable=0;whiteSpace=wrap;html=1;" parent="44" vertex="1">
                    <mxGeometry y="60" width="140" height="30" as="geometry"/>
                </mxCell>
                <mxCell id="51" value="&lt;b&gt;&lt;i&gt;Edit Model&lt;/i&gt;&lt;/b&gt;" style="swimlane;fontStyle=0;childLayout=stackLayout;horizontal=1;startSize=30;horizontalStack=0;resizeParent=1;resizeParentMax=0;resizeLast=0;collapsible=1;marginBottom=0;whiteSpace=wrap;html=1;fillColor=#999999;" parent="1" vertex="1">
                    <mxGeometry x="1530" y="40" width="140" height="120" as="geometry"/>
                </mxCell>
                <mxCell id="52" value="modelID - String" style="text;strokeColor=none;fillColor=#CCCCCC;align=left;verticalAlign=middle;spacingLeft=4;spacingRight=4;overflow=hidden;points=[[0,0.5],[1,0.5]];portConstraint=eastwest;rotatable=0;whiteSpace=wrap;html=1;" parent="51" vertex="1">
                    <mxGeometry y="30" width="140" height="30" as="geometry"/>
                </mxCell>
                <mxCell id="53" value="&lt;span style=&quot;color: rgb(0, 0, 0);&quot;&gt;AdminID&amp;nbsp;&lt;/span&gt;-&amp;nbsp;&lt;span style=&quot;color: rgb(0, 0, 0);&quot;&gt;String&lt;/span&gt;" style="text;strokeColor=none;fillColor=#CCCCCC;align=left;verticalAlign=middle;spacingLeft=4;spacingRight=4;overflow=hidden;points=[[0,0.5],[1,0.5]];portConstraint=eastwest;rotatable=0;whiteSpace=wrap;html=1;" parent="51" vertex="1">
                    <mxGeometry y="60" width="140" height="30" as="geometry"/>
                </mxCell>
                <mxCell id="410" value="model - Model" style="text;strokeColor=none;fillColor=#CCCCCC;align=left;verticalAlign=middle;spacingLeft=4;spacingRight=4;overflow=hidden;points=[[0,0.5],[1,0.5]];portConstraint=eastwest;rotatable=0;whiteSpace=wrap;html=1;" parent="51" vertex="1">
                    <mxGeometry y="90" width="140" height="30" as="geometry"/>
                </mxCell>
                <mxCell id="65" value="" style="edgeStyle=none;html=1;entryX=0.5;entryY=0;entryDx=0;entryDy=0;" parent="1" source="55" target="66" edge="1">
                    <mxGeometry relative="1" as="geometry">
                        <mxPoint x="1030" y="230" as="targetPoint"/>
                    </mxGeometry>
                </mxCell>
                <mxCell id="55" value="&lt;b&gt;&lt;i&gt;Create Account:&amp;nbsp;&lt;br&gt;&lt;/i&gt;&lt;/b&gt;" style="swimlane;fontStyle=0;childLayout=stackLayout;horizontal=1;startSize=30;horizontalStack=0;resizeParent=1;resizeParentMax=0;resizeLast=0;collapsible=1;marginBottom=0;whiteSpace=wrap;html=1;fillColor=#999999;" parent="1" vertex="1">
                    <mxGeometry x="980" y="40" width="140" height="120" as="geometry"/>
                </mxCell>
                <mxCell id="56" value="email -&amp;nbsp;&lt;span style=&quot;color: rgb(0, 0, 0);&quot;&gt;String&lt;/span&gt;" style="text;strokeColor=none;fillColor=#CCCCCC;align=left;verticalAlign=middle;spacingLeft=4;spacingRight=4;overflow=hidden;points=[[0,0.5],[1,0.5]];portConstraint=eastwest;rotatable=0;whiteSpace=wrap;html=1;" parent="55" vertex="1">
                    <mxGeometry y="30" width="140" height="30" as="geometry"/>
                </mxCell>
                <mxCell id="394" value="username-&amp;nbsp;&lt;span style=&quot;color: rgb(0, 0, 0);&quot;&gt;String&lt;/span&gt;" style="text;strokeColor=none;fillColor=#CCCCCC;align=left;verticalAlign=middle;spacingLeft=4;spacingRight=4;overflow=hidden;points=[[0,0.5],[1,0.5]];portConstraint=eastwest;rotatable=0;whiteSpace=wrap;html=1;" parent="55" vertex="1">
                    <mxGeometry y="60" width="140" height="30" as="geometry"/>
                </mxCell>
                <mxCell id="57" value="password -&amp;nbsp;&lt;span style=&quot;color: rgb(0, 0, 0);&quot;&gt;String&lt;/span&gt;" style="text;strokeColor=none;fillColor=#CCCCCC;align=left;verticalAlign=middle;spacingLeft=4;spacingRight=4;overflow=hidden;points=[[0,0.5],[1,0.5]];portConstraint=eastwest;rotatable=0;whiteSpace=wrap;html=1;" parent="55" vertex="1">
                    <mxGeometry y="90" width="140" height="30" as="geometry"/>
                </mxCell>
                <mxCell id="58" value="" style="endArrow=classic;html=1;exitX=0.5;exitY=1;exitDx=0;exitDy=0;entryX=0.5;entryY=0;entryDx=0;entryDy=0;edgeStyle=orthogonalEdgeStyle;" parent="1" source="39" target="84" edge="1">
                    <mxGeometry width="50" height="50" relative="1" as="geometry">
                        <mxPoint x="1420" y="-120" as="sourcePoint"/>
                        <mxPoint x="1640" y="60" as="targetPoint"/>
                    </mxGeometry>
                </mxCell>
                <mxCell id="66" value="&lt;b&gt;&lt;i&gt;Returns:&lt;br&gt;&lt;/i&gt;&lt;/b&gt;" style="swimlane;fontStyle=0;childLayout=stackLayout;horizontal=1;startSize=30;horizontalStack=0;resizeParent=1;resizeParentMax=0;resizeLast=0;collapsible=1;marginBottom=0;whiteSpace=wrap;html=1;fillColor=#999999;" parent="1" vertex="1">
                    <mxGeometry x="980" y="220" width="140" height="120" as="geometry"/>
                </mxCell>
                <mxCell id="318" value="&lt;span style=&quot;color: rgb(0, 0, 0);&quot;&gt;worked - bool&lt;/span&gt;" style="text;strokeColor=none;fillColor=#CCCCCC;align=left;verticalAlign=middle;spacingLeft=4;spacingRight=4;overflow=hidden;points=[[0,0.5],[1,0.5]];portConstraint=eastwest;rotatable=0;whiteSpace=wrap;html=1;" parent="66" vertex="1">
                    <mxGeometry y="30" width="140" height="30" as="geometry"/>
                </mxCell>
                <mxCell id="319" value="&lt;span style=&quot;color: rgb(0, 0, 0);&quot;&gt;Message - String&lt;/span&gt;" style="text;strokeColor=none;fillColor=#CCCCCC;align=left;verticalAlign=middle;spacingLeft=4;spacingRight=4;overflow=hidden;points=[[0,0.5],[1,0.5]];portConstraint=eastwest;rotatable=0;whiteSpace=wrap;html=1;" parent="66" vertex="1">
                    <mxGeometry y="60" width="140" height="30" as="geometry"/>
                </mxCell>
                <mxCell id="70" value="&lt;font style=&quot;color: rgb(0, 0, 0);&quot;&gt;UserID&lt;span style=&quot;background-color: transparent;&quot;&gt;&amp;nbsp;- String&lt;/span&gt;&lt;/font&gt;" style="text;strokeColor=none;fillColor=#CCCCCC;align=left;verticalAlign=middle;spacingLeft=4;spacingRight=4;overflow=hidden;points=[[0,0.5],[1,0.5]];portConstraint=eastwest;rotatable=0;whiteSpace=wrap;html=1;" parent="66" vertex="1">
                    <mxGeometry y="90" width="140" height="30" as="geometry"/>
                </mxCell>
                <mxCell id="72" value="" style="edgeStyle=none;html=1;exitX=0.5;exitY=1;exitDx=0;exitDy=0;entryX=0.5;entryY=0;entryDx=0;entryDy=0;" parent="1" source="44" target="73" edge="1">
                    <mxGeometry relative="1" as="geometry">
                        <mxPoint x="809.58" y="160" as="sourcePoint"/>
                        <mxPoint x="810" y="220" as="targetPoint"/>
                    </mxGeometry>
                </mxCell>
                <mxCell id="73" value="&lt;b&gt;&lt;i&gt;Returns:&lt;br&gt;&lt;/i&gt;&lt;/b&gt;" style="swimlane;fontStyle=0;childLayout=stackLayout;horizontal=1;startSize=30;horizontalStack=0;resizeParent=1;resizeParentMax=0;resizeLast=0;collapsible=1;marginBottom=0;whiteSpace=wrap;html=1;fillColor=#999999;" parent="1" vertex="1">
                    <mxGeometry x="740" y="220" width="140" height="120" as="geometry"/>
                </mxCell>
                <mxCell id="317" value="&lt;span style=&quot;color: rgb(0, 0, 0);&quot;&gt;Message - String&lt;/span&gt;" style="text;strokeColor=none;fillColor=#CCCCCC;align=left;verticalAlign=middle;spacingLeft=4;spacingRight=4;overflow=hidden;points=[[0,0.5],[1,0.5]];portConstraint=eastwest;rotatable=0;whiteSpace=wrap;html=1;" parent="73" vertex="1">
                    <mxGeometry y="30" width="140" height="30" as="geometry"/>
                </mxCell>
                <mxCell id="316" value="&lt;span style=&quot;color: rgb(0, 0, 0);&quot;&gt;worked - bool&lt;/span&gt;" style="text;strokeColor=none;fillColor=#CCCCCC;align=left;verticalAlign=middle;spacingLeft=4;spacingRight=4;overflow=hidden;points=[[0,0.5],[1,0.5]];portConstraint=eastwest;rotatable=0;whiteSpace=wrap;html=1;" parent="73" vertex="1">
                    <mxGeometry y="60" width="140" height="30" as="geometry"/>
                </mxCell>
                <mxCell id="77" value="&lt;font style=&quot;color: rgb(0, 0, 0);&quot;&gt;UserID&lt;span style=&quot;background-color: transparent;&quot;&gt;&amp;nbsp;- String&lt;/span&gt;&lt;/font&gt;" style="text;strokeColor=none;fillColor=#CCCCCC;align=left;verticalAlign=middle;spacingLeft=4;spacingRight=4;overflow=hidden;points=[[0,0.5],[1,0.5]];portConstraint=eastwest;rotatable=0;whiteSpace=wrap;html=1;" parent="73" vertex="1">
                    <mxGeometry y="90" width="140" height="30" as="geometry"/>
                </mxCell>
                <mxCell id="78" value="&lt;b&gt;&lt;i&gt;Returns:&lt;br&gt;&lt;/i&gt;&lt;/b&gt;" style="swimlane;fontStyle=0;childLayout=stackLayout;horizontal=1;startSize=30;horizontalStack=0;resizeParent=1;resizeParentMax=0;resizeLast=0;collapsible=1;marginBottom=0;whiteSpace=wrap;html=1;fillColor=#999999;" parent="1" vertex="1">
                    <mxGeometry x="1530" y="220" width="140" height="90" as="geometry"/>
                </mxCell>
                <mxCell id="327" value="&lt;span style=&quot;color: rgb(0, 0, 0);&quot;&gt;worked - bool&lt;/span&gt;" style="text;strokeColor=none;fillColor=#CCCCCC;align=left;verticalAlign=middle;spacingLeft=4;spacingRight=4;overflow=hidden;points=[[0,0.5],[1,0.5]];portConstraint=eastwest;rotatable=0;whiteSpace=wrap;html=1;" parent="78" vertex="1">
                    <mxGeometry y="30" width="140" height="30" as="geometry"/>
                </mxCell>
                <mxCell id="328" value="&lt;span style=&quot;color: rgb(0, 0, 0);&quot;&gt;Message - String&lt;/span&gt;" style="text;strokeColor=none;fillColor=#CCCCCC;align=left;verticalAlign=middle;spacingLeft=4;spacingRight=4;overflow=hidden;points=[[0,0.5],[1,0.5]];portConstraint=eastwest;rotatable=0;whiteSpace=wrap;html=1;" parent="78" vertex="1">
                    <mxGeometry y="60" width="140" height="30" as="geometry"/>
                </mxCell>
                <mxCell id="83" value="" style="endArrow=classic;html=1;entryX=0.5;entryY=0;entryDx=0;entryDy=0;" parent="1" target="78" edge="1">
                    <mxGeometry width="50" height="50" relative="1" as="geometry">
                        <mxPoint x="1598" y="160" as="sourcePoint"/>
                        <mxPoint x="1590" y="220" as="targetPoint"/>
                    </mxGeometry>
                </mxCell>
                <mxCell id="84" value="&lt;b&gt;&lt;i&gt;Edit Room&lt;/i&gt;&lt;/b&gt;" style="swimlane;fontStyle=0;childLayout=stackLayout;horizontal=1;startSize=30;horizontalStack=0;resizeParent=1;resizeParentMax=0;resizeLast=0;collapsible=1;marginBottom=0;whiteSpace=wrap;html=1;fillColor=#999999;" parent="1" vertex="1">
                    <mxGeometry x="1970" y="40" width="140" height="120" as="geometry"/>
                </mxCell>
                <mxCell id="85" value="RoomID - String" style="text;strokeColor=none;fillColor=#CCCCCC;align=left;verticalAlign=middle;spacingLeft=4;spacingRight=4;overflow=hidden;points=[[0,0.5],[1,0.5]];portConstraint=eastwest;rotatable=0;whiteSpace=wrap;html=1;" parent="84" vertex="1">
                    <mxGeometry y="30" width="140" height="30" as="geometry"/>
                </mxCell>
                <mxCell id="86" value="UserID -&amp;nbsp;&lt;span style=&quot;color: rgb(0, 0, 0);&quot;&gt;String&lt;/span&gt;" style="text;strokeColor=none;fillColor=#CCCCCC;align=left;verticalAlign=middle;spacingLeft=4;spacingRight=4;overflow=hidden;points=[[0,0.5],[1,0.5]];portConstraint=eastwest;rotatable=0;whiteSpace=wrap;html=1;" parent="84" vertex="1">
                    <mxGeometry y="60" width="140" height="30" as="geometry"/>
                </mxCell>
                <mxCell id="406" value="Room -&amp;nbsp;&lt;span style=&quot;color: rgb(0, 0, 0);&quot;&gt;Room&lt;/span&gt;" style="text;strokeColor=none;fillColor=#CCCCCC;align=left;verticalAlign=middle;spacingLeft=4;spacingRight=4;overflow=hidden;points=[[0,0.5],[1,0.5]];portConstraint=eastwest;rotatable=0;whiteSpace=wrap;html=1;" parent="84" vertex="1">
                    <mxGeometry y="90" width="140" height="30" as="geometry"/>
                </mxCell>
                <mxCell id="91" value="" style="endArrow=classic;html=1;entryX=0.5;entryY=0;entryDx=0;entryDy=0;exitX=0.502;exitY=0.907;exitDx=0;exitDy=0;exitPerimeter=0;" parent="1" source="406" target="92" edge="1">
                    <mxGeometry width="50" height="50" relative="1" as="geometry">
                        <mxPoint x="2030" y="132" as="sourcePoint"/>
                        <mxPoint x="2040" y="220" as="targetPoint"/>
                    </mxGeometry>
                </mxCell>
                <mxCell id="92" value="&lt;b&gt;&lt;i&gt;Returns:&lt;br&gt;&lt;/i&gt;&lt;/b&gt;" style="swimlane;fontStyle=0;childLayout=stackLayout;horizontal=1;startSize=30;horizontalStack=0;resizeParent=1;resizeParentMax=0;resizeLast=0;collapsible=1;marginBottom=0;whiteSpace=wrap;html=1;fillColor=#999999;" parent="1" vertex="1">
                    <mxGeometry x="1970" y="220" width="140" height="90" as="geometry"/>
                </mxCell>
                <mxCell id="331" value="&lt;span style=&quot;color: rgb(0, 0, 0);&quot;&gt;worked - bool&lt;/span&gt;" style="text;strokeColor=none;fillColor=#CCCCCC;align=left;verticalAlign=middle;spacingLeft=4;spacingRight=4;overflow=hidden;points=[[0,0.5],[1,0.5]];portConstraint=eastwest;rotatable=0;whiteSpace=wrap;html=1;" parent="92" vertex="1">
                    <mxGeometry y="30" width="140" height="30" as="geometry"/>
                </mxCell>
                <mxCell id="332" value="&lt;span style=&quot;color: rgb(0, 0, 0);&quot;&gt;Message - String&lt;/span&gt;" style="text;strokeColor=none;fillColor=#CCCCCC;align=left;verticalAlign=middle;spacingLeft=4;spacingRight=4;overflow=hidden;points=[[0,0.5],[1,0.5]];portConstraint=eastwest;rotatable=0;whiteSpace=wrap;html=1;" parent="92" vertex="1">
                    <mxGeometry y="60" width="140" height="30" as="geometry"/>
                </mxCell>
                <mxCell id="96" value="&lt;b&gt;&lt;i&gt;Add Model&lt;/i&gt;&lt;/b&gt;" style="swimlane;fontStyle=0;childLayout=stackLayout;horizontal=1;startSize=30;horizontalStack=0;resizeParent=1;resizeParentMax=0;resizeLast=0;collapsible=1;marginBottom=0;whiteSpace=wrap;html=1;fillColor=#999999;" parent="1" vertex="1">
                    <mxGeometry x="1260" y="40" width="140" height="90" as="geometry"/>
                </mxCell>
                <mxCell id="97" value="Model - Model" style="text;strokeColor=none;fillColor=#CCCCCC;align=left;verticalAlign=middle;spacingLeft=4;spacingRight=4;overflow=hidden;points=[[0,0.5],[1,0.5]];portConstraint=eastwest;rotatable=0;whiteSpace=wrap;html=1;" parent="96" vertex="1">
                    <mxGeometry y="30" width="140" height="30" as="geometry"/>
                </mxCell>
                <mxCell id="98" value="&lt;span style=&quot;color: rgb(0, 0, 0);&quot;&gt;AdminID&amp;nbsp;&lt;/span&gt;-&amp;nbsp;&lt;span style=&quot;color: rgb(0, 0, 0);&quot;&gt;String&lt;/span&gt;" style="text;strokeColor=none;fillColor=#CCCCCC;align=left;verticalAlign=middle;spacingLeft=4;spacingRight=4;overflow=hidden;points=[[0,0.5],[1,0.5]];portConstraint=eastwest;rotatable=0;whiteSpace=wrap;html=1;" parent="96" vertex="1">
                    <mxGeometry y="60" width="140" height="30" as="geometry"/>
                </mxCell>
                <mxCell id="99" value="&lt;b&gt;&lt;i&gt;Returns:&lt;br&gt;&lt;/i&gt;&lt;/b&gt;" style="swimlane;fontStyle=0;childLayout=stackLayout;horizontal=1;startSize=30;horizontalStack=0;resizeParent=1;resizeParentMax=0;resizeLast=0;collapsible=1;marginBottom=0;whiteSpace=wrap;html=1;fillColor=#999999;" parent="1" vertex="1">
                    <mxGeometry x="1260" y="220" width="140" height="120" as="geometry"/>
                </mxCell>
                <mxCell id="325" value="&lt;span style=&quot;color: rgb(0, 0, 0);&quot;&gt;worked - bool&lt;/span&gt;" style="text;strokeColor=none;fillColor=#CCCCCC;align=left;verticalAlign=middle;spacingLeft=4;spacingRight=4;overflow=hidden;points=[[0,0.5],[1,0.5]];portConstraint=eastwest;rotatable=0;whiteSpace=wrap;html=1;" parent="99" vertex="1">
                    <mxGeometry y="30" width="140" height="30" as="geometry"/>
                </mxCell>
                <mxCell id="326" value="&lt;span style=&quot;color: rgb(0, 0, 0);&quot;&gt;Message - String&lt;/span&gt;" style="text;strokeColor=none;fillColor=#CCCCCC;align=left;verticalAlign=middle;spacingLeft=4;spacingRight=4;overflow=hidden;points=[[0,0.5],[1,0.5]];portConstraint=eastwest;rotatable=0;whiteSpace=wrap;html=1;" parent="99" vertex="1">
                    <mxGeometry y="60" width="140" height="30" as="geometry"/>
                </mxCell>
                <mxCell id="100" value="Modelid - String" style="text;strokeColor=none;fillColor=#CCCCCC;align=left;verticalAlign=middle;spacingLeft=4;spacingRight=4;overflow=hidden;points=[[0,0.5],[1,0.5]];portConstraint=eastwest;rotatable=0;whiteSpace=wrap;html=1;" parent="99" vertex="1">
                    <mxGeometry y="90" width="140" height="30" as="geometry"/>
                </mxCell>
                <mxCell id="103" value="" style="endArrow=classic;html=1;entryX=0.5;entryY=0;entryDx=0;entryDy=0;" parent="1" source="98" target="99" edge="1">
                    <mxGeometry width="50" height="50" relative="1" as="geometry">
                        <mxPoint x="1320" y="132" as="sourcePoint"/>
                        <mxPoint x="1320" y="220" as="targetPoint"/>
                    </mxGeometry>
                </mxCell>
                <mxCell id="104" value="" style="endArrow=classic;html=1;exitX=0.5;exitY=1;exitDx=0;exitDy=0;entryX=0.5;entryY=0;entryDx=0;entryDy=0;edgeStyle=orthogonalEdgeStyle;" parent="1" source="39" target="96" edge="1">
                    <mxGeometry width="50" height="50" relative="1" as="geometry">
                        <mxPoint x="1320" y="270" as="sourcePoint"/>
                        <mxPoint x="1370" y="220" as="targetPoint"/>
                    </mxGeometry>
                </mxCell>
                <mxCell id="105" value="&lt;b&gt;&lt;i&gt;Add Room&lt;/i&gt;&lt;/b&gt;" style="swimlane;fontStyle=0;childLayout=stackLayout;horizontal=1;startSize=30;horizontalStack=0;resizeParent=1;resizeParentMax=0;resizeLast=0;collapsible=1;marginBottom=0;whiteSpace=wrap;html=1;fillColor=#999999;" parent="1" vertex="1">
                    <mxGeometry x="1750" y="40" width="140" height="90" as="geometry"/>
                </mxCell>
                <mxCell id="107" value="UserID -&amp;nbsp;&lt;span style=&quot;color: rgb(0, 0, 0);&quot;&gt;String&lt;/span&gt;" style="text;strokeColor=none;fillColor=#CCCCCC;align=left;verticalAlign=middle;spacingLeft=4;spacingRight=4;overflow=hidden;points=[[0,0.5],[1,0.5]];portConstraint=eastwest;rotatable=0;whiteSpace=wrap;html=1;" parent="105" vertex="1">
                    <mxGeometry y="30" width="140" height="30" as="geometry"/>
                </mxCell>
                <mxCell id="408" value="Room-&amp;nbsp;&lt;span style=&quot;color: rgb(0, 0, 0);&quot;&gt;Room&lt;/span&gt;" style="text;strokeColor=none;fillColor=#CCCCCC;align=left;verticalAlign=middle;spacingLeft=4;spacingRight=4;overflow=hidden;points=[[0,0.5],[1,0.5]];portConstraint=eastwest;rotatable=0;whiteSpace=wrap;html=1;" parent="105" vertex="1">
                    <mxGeometry y="60" width="140" height="30" as="geometry"/>
                </mxCell>
                <mxCell id="108" value="&lt;b&gt;&lt;i&gt;Returns:&lt;br&gt;&lt;/i&gt;&lt;/b&gt;" style="swimlane;fontStyle=0;childLayout=stackLayout;horizontal=1;startSize=30;horizontalStack=0;resizeParent=1;resizeParentMax=0;resizeLast=0;collapsible=1;marginBottom=0;whiteSpace=wrap;html=1;fillColor=#999999;" parent="1" vertex="1">
                    <mxGeometry x="1750" y="220" width="140" height="120" as="geometry"/>
                </mxCell>
                <mxCell id="329" value="&lt;span style=&quot;color: rgb(0, 0, 0);&quot;&gt;worked - bool&lt;/span&gt;" style="text;strokeColor=none;fillColor=#CCCCCC;align=left;verticalAlign=middle;spacingLeft=4;spacingRight=4;overflow=hidden;points=[[0,0.5],[1,0.5]];portConstraint=eastwest;rotatable=0;whiteSpace=wrap;html=1;" parent="108" vertex="1">
                    <mxGeometry y="30" width="140" height="30" as="geometry"/>
                </mxCell>
                <mxCell id="330" value="&lt;span style=&quot;color: rgb(0, 0, 0);&quot;&gt;Message - String&lt;/span&gt;" style="text;strokeColor=none;fillColor=#CCCCCC;align=left;verticalAlign=middle;spacingLeft=4;spacingRight=4;overflow=hidden;points=[[0,0.5],[1,0.5]];portConstraint=eastwest;rotatable=0;whiteSpace=wrap;html=1;" parent="108" vertex="1">
                    <mxGeometry y="60" width="140" height="30" as="geometry"/>
                </mxCell>
                <mxCell id="111" value="Roomid - String" style="text;strokeColor=none;fillColor=#CCCCCC;align=left;verticalAlign=middle;spacingLeft=4;spacingRight=4;overflow=hidden;points=[[0,0.5],[1,0.5]];portConstraint=eastwest;rotatable=0;whiteSpace=wrap;html=1;" parent="108" vertex="1">
                    <mxGeometry y="90" width="140" height="30" as="geometry"/>
                </mxCell>
                <mxCell id="112" value="" style="endArrow=classic;html=1;entryX=0.5;entryY=0;entryDx=0;entryDy=0;exitX=0.514;exitY=1.028;exitDx=0;exitDy=0;exitPerimeter=0;" parent="1" source="408" target="108" edge="1">
                    <mxGeometry width="50" height="50" relative="1" as="geometry">
                        <mxPoint x="1810" y="132" as="sourcePoint"/>
                        <mxPoint x="1810" y="220" as="targetPoint"/>
                    </mxGeometry>
                </mxCell>
                <mxCell id="117" value="" style="endArrow=classic;html=1;exitX=0.5;exitY=1;exitDx=0;exitDy=0;entryX=0.5;entryY=0;entryDx=0;entryDy=0;edgeStyle=orthogonalEdgeStyle;" parent="1" source="39" target="105" edge="1">
                    <mxGeometry width="50" height="50" relative="1" as="geometry">
                        <mxPoint x="1100" y="330" as="sourcePoint"/>
                        <mxPoint x="1150" y="280" as="targetPoint"/>
                    </mxGeometry>
                </mxCell>
                <mxCell id="118" value="&lt;b&gt;&lt;i&gt;Get Model&lt;/i&gt;&lt;/b&gt;" style="swimlane;fontStyle=0;childLayout=stackLayout;horizontal=1;startSize=30;horizontalStack=0;resizeParent=1;resizeParentMax=0;resizeLast=0;collapsible=1;marginBottom=0;whiteSpace=wrap;html=1;fillColor=#999999;" parent="1" vertex="1">
                    <mxGeometry x="2190" y="40" width="140" height="60" as="geometry"/>
                </mxCell>
                <mxCell id="120" value="Modelid - String" style="text;strokeColor=none;fillColor=#CCCCCC;align=left;verticalAlign=middle;spacingLeft=4;spacingRight=4;overflow=hidden;points=[[0,0.5],[1,0.5]];portConstraint=eastwest;rotatable=0;whiteSpace=wrap;html=1;" parent="118" vertex="1">
                    <mxGeometry y="30" width="140" height="30" as="geometry"/>
                </mxCell>
                <mxCell id="121" value="" style="endArrow=classic;html=1;entryX=0.5;entryY=0;entryDx=0;entryDy=0;" parent="1" source="120" target="122" edge="1">
                    <mxGeometry width="50" height="50" relative="1" as="geometry">
                        <mxPoint x="2250" y="132" as="sourcePoint"/>
                        <mxPoint x="2260" y="220" as="targetPoint"/>
                    </mxGeometry>
                </mxCell>
                <mxCell id="122" value="&lt;b&gt;&lt;i&gt;Returns:&lt;br&gt;&lt;/i&gt;&lt;/b&gt;" style="swimlane;fontStyle=0;childLayout=stackLayout;horizontal=1;startSize=30;horizontalStack=0;resizeParent=1;resizeParentMax=0;resizeLast=0;collapsible=1;marginBottom=0;whiteSpace=wrap;html=1;fillColor=#999999;" parent="1" vertex="1">
                    <mxGeometry x="2190" y="220" width="140" height="120" as="geometry"/>
                </mxCell>
                <mxCell id="333" value="&lt;span style=&quot;color: rgb(0, 0, 0);&quot;&gt;worked - bool&lt;/span&gt;" style="text;strokeColor=none;fillColor=#CCCCCC;align=left;verticalAlign=middle;spacingLeft=4;spacingRight=4;overflow=hidden;points=[[0,0.5],[1,0.5]];portConstraint=eastwest;rotatable=0;whiteSpace=wrap;html=1;" parent="122" vertex="1">
                    <mxGeometry y="30" width="140" height="30" as="geometry"/>
                </mxCell>
                <mxCell id="334" value="&lt;span style=&quot;color: rgb(0, 0, 0);&quot;&gt;Message - String&lt;/span&gt;" style="text;strokeColor=none;fillColor=#CCCCCC;align=left;verticalAlign=middle;spacingLeft=4;spacingRight=4;overflow=hidden;points=[[0,0.5],[1,0.5]];portConstraint=eastwest;rotatable=0;whiteSpace=wrap;html=1;" parent="122" vertex="1">
                    <mxGeometry y="60" width="140" height="30" as="geometry"/>
                </mxCell>
                <mxCell id="123" value="&lt;span style=&quot;color: rgb(0, 0, 0);&quot;&gt;Model - Model&lt;/span&gt;" style="text;strokeColor=none;fillColor=#CCCCCC;align=left;verticalAlign=middle;spacingLeft=4;spacingRight=4;overflow=hidden;points=[[0,0.5],[1,0.5]];portConstraint=eastwest;rotatable=0;whiteSpace=wrap;html=1;" parent="122" vertex="1">
                    <mxGeometry y="90" width="140" height="30" as="geometry"/>
                </mxCell>
                <mxCell id="124" value="&lt;b&gt;&lt;i&gt;Get Models&lt;/i&gt;&lt;/b&gt;" style="swimlane;fontStyle=0;childLayout=stackLayout;horizontal=1;startSize=30;horizontalStack=0;resizeParent=1;resizeParentMax=0;resizeLast=0;collapsible=1;marginBottom=0;whiteSpace=wrap;html=1;fillColor=#999999;" parent="1" vertex="1">
                    <mxGeometry x="2410" y="40" width="140" height="60" as="geometry"/>
                </mxCell>
                <mxCell id="126" value="" style="endArrow=classic;html=1;entryX=0.5;entryY=0;entryDx=0;entryDy=0;" parent="1" target="127" edge="1">
                    <mxGeometry width="50" height="50" relative="1" as="geometry">
                        <mxPoint x="2480" y="100" as="sourcePoint"/>
                        <mxPoint x="2480" y="220" as="targetPoint"/>
                    </mxGeometry>
                </mxCell>
                <mxCell id="127" value="&lt;b&gt;&lt;i&gt;Returns:&lt;br&gt;&lt;/i&gt;&lt;/b&gt;" style="swimlane;fontStyle=0;childLayout=stackLayout;horizontal=1;startSize=30;horizontalStack=0;resizeParent=1;resizeParentMax=0;resizeLast=0;collapsible=1;marginBottom=0;whiteSpace=wrap;html=1;fillColor=#999999;" parent="1" vertex="1">
                    <mxGeometry x="2410" y="220" width="140" height="120" as="geometry"/>
                </mxCell>
                <mxCell id="335" value="&lt;span style=&quot;color: rgb(0, 0, 0);&quot;&gt;worked - bool&lt;/span&gt;" style="text;strokeColor=none;fillColor=#CCCCCC;align=left;verticalAlign=middle;spacingLeft=4;spacingRight=4;overflow=hidden;points=[[0,0.5],[1,0.5]];portConstraint=eastwest;rotatable=0;whiteSpace=wrap;html=1;" parent="127" vertex="1">
                    <mxGeometry y="30" width="140" height="30" as="geometry"/>
                </mxCell>
                <mxCell id="336" value="&lt;span style=&quot;color: rgb(0, 0, 0);&quot;&gt;Message - String&lt;/span&gt;" style="text;strokeColor=none;fillColor=#CCCCCC;align=left;verticalAlign=middle;spacingLeft=4;spacingRight=4;overflow=hidden;points=[[0,0.5],[1,0.5]];portConstraint=eastwest;rotatable=0;whiteSpace=wrap;html=1;" parent="127" vertex="1">
                    <mxGeometry y="60" width="140" height="30" as="geometry"/>
                </mxCell>
                <mxCell id="128" value="&lt;span style=&quot;color: rgb(0, 0, 0);&quot;&gt;Models[] - model&lt;/span&gt;" style="text;strokeColor=none;fillColor=#CCCCCC;align=left;verticalAlign=middle;spacingLeft=4;spacingRight=4;overflow=hidden;points=[[0,0.5],[1,0.5]];portConstraint=eastwest;rotatable=0;whiteSpace=wrap;html=1;" parent="127" vertex="1">
                    <mxGeometry y="90" width="140" height="30" as="geometry"/>
                </mxCell>
                <mxCell id="129" value="" style="endArrow=classic;html=1;entryX=0.5;entryY=0;entryDx=0;entryDy=0;exitX=0.5;exitY=1;exitDx=0;exitDy=0;edgeStyle=orthogonalEdgeStyle;" parent="1" source="39" target="124" edge="1">
                    <mxGeometry width="50" height="50" relative="1" as="geometry">
                        <mxPoint x="1560" y="220" as="sourcePoint"/>
                        <mxPoint x="1610" y="170" as="targetPoint"/>
                    </mxGeometry>
                </mxCell>
                <mxCell id="130" value="&lt;b&gt;&lt;i&gt;Delete Room&lt;/i&gt;&lt;/b&gt;" style="swimlane;fontStyle=0;childLayout=stackLayout;horizontal=1;startSize=30;horizontalStack=0;resizeParent=1;resizeParentMax=0;resizeLast=0;collapsible=1;marginBottom=0;whiteSpace=wrap;html=1;fillColor=#999999;" parent="1" vertex="1">
                    <mxGeometry x="2640" y="40" width="140" height="90" as="geometry"/>
                </mxCell>
                <mxCell id="131" value="userid - String" style="text;strokeColor=none;fillColor=#CCCCCC;align=left;verticalAlign=middle;spacingLeft=4;spacingRight=4;overflow=hidden;points=[[0,0.5],[1,0.5]];portConstraint=eastwest;rotatable=0;whiteSpace=wrap;html=1;" parent="130" vertex="1">
                    <mxGeometry y="30" width="140" height="30" as="geometry"/>
                </mxCell>
                <mxCell id="400" value="Roomid - String" style="text;strokeColor=none;fillColor=#CCCCCC;align=left;verticalAlign=middle;spacingLeft=4;spacingRight=4;overflow=hidden;points=[[0,0.5],[1,0.5]];portConstraint=eastwest;rotatable=0;whiteSpace=wrap;html=1;" parent="130" vertex="1">
                    <mxGeometry y="60" width="140" height="30" as="geometry"/>
                </mxCell>
                <mxCell id="132" value="" style="endArrow=classic;html=1;entryX=0.5;entryY=0;entryDx=0;entryDy=0;exitX=0.5;exitY=1;exitDx=0;exitDy=0;" parent="1" source="130" target="133" edge="1">
                    <mxGeometry width="50" height="50" relative="1" as="geometry">
                        <mxPoint x="2700" y="132" as="sourcePoint"/>
                        <mxPoint x="2710" y="220" as="targetPoint"/>
                    </mxGeometry>
                </mxCell>
                <mxCell id="133" value="&lt;b&gt;&lt;i&gt;Returns:&lt;br&gt;&lt;/i&gt;&lt;/b&gt;" style="swimlane;fontStyle=0;childLayout=stackLayout;horizontal=1;startSize=30;horizontalStack=0;resizeParent=1;resizeParentMax=0;resizeLast=0;collapsible=1;marginBottom=0;whiteSpace=wrap;html=1;fillColor=#999999;" parent="1" vertex="1">
                    <mxGeometry x="2640" y="220" width="140" height="90" as="geometry"/>
                </mxCell>
                <mxCell id="340" value="&lt;span style=&quot;color: rgb(0, 0, 0);&quot;&gt;Message - String&lt;/span&gt;" style="text;strokeColor=none;fillColor=#CCCCCC;align=left;verticalAlign=middle;spacingLeft=4;spacingRight=4;overflow=hidden;points=[[0,0.5],[1,0.5]];portConstraint=eastwest;rotatable=0;whiteSpace=wrap;html=1;" parent="133" vertex="1">
                    <mxGeometry y="30" width="140" height="30" as="geometry"/>
                </mxCell>
                <mxCell id="339" value="&lt;span style=&quot;color: rgb(0, 0, 0);&quot;&gt;worked - bool&lt;/span&gt;" style="text;strokeColor=none;fillColor=#CCCCCC;align=left;verticalAlign=middle;spacingLeft=4;spacingRight=4;overflow=hidden;points=[[0,0.5],[1,0.5]];portConstraint=eastwest;rotatable=0;whiteSpace=wrap;html=1;" parent="133" vertex="1">
                    <mxGeometry y="60" width="140" height="30" as="geometry"/>
                </mxCell>
                <mxCell id="135" value="" style="endArrow=classic;html=1;entryX=0.5;entryY=0;entryDx=0;entryDy=0;exitX=0.5;exitY=1;exitDx=0;exitDy=0;edgeStyle=orthogonalEdgeStyle;" parent="1" source="39" target="130" edge="1">
                    <mxGeometry width="50" height="50" relative="1" as="geometry">
                        <mxPoint x="2520" y="430" as="sourcePoint"/>
                        <mxPoint x="2570" y="380" as="targetPoint"/>
                    </mxGeometry>
                </mxCell>
                <mxCell id="145" value="&lt;h1&gt;Web&lt;/h1&gt;" style="rounded=0;whiteSpace=wrap;html=1;fillColor=#999999;" parent="1" vertex="1">
                    <mxGeometry x="4620" y="-120" width="120" height="60" as="geometry"/>
                </mxCell>
                <mxCell id="147" value="" style="endArrow=classic;html=1;exitX=0.5;exitY=1;exitDx=0;exitDy=0;entryX=0.5;entryY=0;entryDx=0;entryDy=0;edgeStyle=orthogonalEdgeStyle;" parent="1" source="145" target="220" edge="1">
                    <mxGeometry width="50" height="50" relative="1" as="geometry">
                        <mxPoint x="4840" y="40" as="sourcePoint"/>
                        <mxPoint x="4520" y="100" as="targetPoint"/>
                    </mxGeometry>
                </mxCell>
                <mxCell id="148" value="" style="endArrow=classic;html=1;exitX=0.5;exitY=1;exitDx=0;exitDy=0;edgeStyle=orthogonalEdgeStyle;" parent="1" source="145" target="222" edge="1">
                    <mxGeometry width="50" height="50" relative="1" as="geometry">
                        <mxPoint x="4840" y="40" as="sourcePoint"/>
                        <mxPoint x="3970" y="100" as="targetPoint"/>
                    </mxGeometry>
                </mxCell>
                <mxCell id="149" value="" style="endArrow=classic;html=1;exitX=0.5;exitY=1;exitDx=0;exitDy=0;edgeStyle=orthogonalEdgeStyle;entryX=0.5;entryY=0;entryDx=0;entryDy=0;" parent="1" source="145" target="212" edge="1">
                    <mxGeometry width="50" height="50" relative="1" as="geometry">
                        <mxPoint x="4709" y="-110" as="sourcePoint"/>
                        <mxPoint x="3768.999999999999" y="50" as="targetPoint"/>
                        <Array as="points">
                            <mxPoint x="4680" y="20"/>
                            <mxPoint x="4160" y="20"/>
                        </Array>
                    </mxGeometry>
                </mxCell>
                <mxCell id="160" value="" style="endArrow=classic;html=1;exitX=0.5;exitY=1;exitDx=0;exitDy=0;entryX=0.5;entryY=0;entryDx=0;entryDy=0;edgeStyle=orthogonalEdgeStyle;" parent="1" source="145" target="225" edge="1">
                    <mxGeometry width="50" height="50" relative="1" as="geometry">
                        <mxPoint x="4680" y="-60" as="sourcePoint"/>
                        <mxPoint x="4960" y="100" as="targetPoint"/>
                    </mxGeometry>
                </mxCell>
                <mxCell id="188" value="" style="endArrow=classic;html=1;exitX=0.5;exitY=1;exitDx=0;exitDy=0;edgeStyle=orthogonalEdgeStyle;" parent="1" source="145" target="221" edge="1">
                    <mxGeometry width="50" height="50" relative="1" as="geometry">
                        <mxPoint x="4580" y="330" as="sourcePoint"/>
                        <mxPoint x="4250" y="100" as="targetPoint"/>
                    </mxGeometry>
                </mxCell>
                <mxCell id="194" value="" style="endArrow=classic;html=1;exitX=0.5;exitY=1;exitDx=0;exitDy=0;edgeStyle=orthogonalEdgeStyle;" parent="1" source="145" target="224" edge="1">
                    <mxGeometry width="50" height="50" relative="1" as="geometry">
                        <mxPoint x="4360" y="390" as="sourcePoint"/>
                        <mxPoint x="4740" y="100" as="targetPoint"/>
                    </mxGeometry>
                </mxCell>
                <mxCell id="205" value="" style="endArrow=classic;html=1;exitX=0.5;exitY=1;exitDx=0;exitDy=0;edgeStyle=orthogonalEdgeStyle;" parent="1" source="145" target="228" edge="1">
                    <mxGeometry width="50" height="50" relative="1" as="geometry">
                        <mxPoint x="4820" y="280" as="sourcePoint"/>
                        <mxPoint x="5400" y="100" as="targetPoint"/>
                    </mxGeometry>
                </mxCell>
                <mxCell id="211" value="" style="endArrow=classic;html=1;entryX=0.5;entryY=0;entryDx=0;entryDy=0;exitX=0.5;exitY=1;exitDx=0;exitDy=0;edgeStyle=orthogonalEdgeStyle;" parent="1" source="145" target="223" edge="1">
                    <mxGeometry width="50" height="50" relative="1" as="geometry">
                        <mxPoint x="5780" y="490" as="sourcePoint"/>
                        <mxPoint x="5630" y="100" as="targetPoint"/>
                    </mxGeometry>
                </mxCell>
                <mxCell id="212" value="&lt;b&gt;&lt;i&gt;Home Page&lt;/i&gt;&lt;/b&gt;" style="rounded=0;whiteSpace=wrap;html=1;fillColor=#999999;" parent="1" vertex="1">
                    <mxGeometry x="4100" y="105" width="120" height="60" as="geometry"/>
                </mxCell>
                <mxCell id="213" value="&lt;b&gt;&lt;i&gt;Get Rooms&lt;/i&gt;&lt;/b&gt;" style="swimlane;fontStyle=0;childLayout=stackLayout;horizontal=1;startSize=30;horizontalStack=0;resizeParent=1;resizeParentMax=0;resizeLast=0;collapsible=1;marginBottom=0;whiteSpace=wrap;html=1;fillColor=#999999;" parent="1" vertex="1">
                    <mxGeometry x="2820" y="40" width="140" height="60" as="geometry"/>
                </mxCell>
                <mxCell id="214" value="user id" style="text;strokeColor=none;fillColor=#CCCCCC;align=left;verticalAlign=middle;spacingLeft=4;spacingRight=4;overflow=hidden;points=[[0,0.5],[1,0.5]];portConstraint=eastwest;rotatable=0;whiteSpace=wrap;html=1;" parent="213" vertex="1">
                    <mxGeometry y="30" width="140" height="30" as="geometry"/>
                </mxCell>
                <mxCell id="215" value="" style="endArrow=classic;html=1;entryX=0.5;entryY=0;entryDx=0;entryDy=0;" parent="1" source="214" target="216" edge="1">
                    <mxGeometry width="50" height="50" relative="1" as="geometry">
                        <mxPoint x="2880" y="132" as="sourcePoint"/>
                        <mxPoint x="2890" y="220" as="targetPoint"/>
                    </mxGeometry>
                </mxCell>
                <mxCell id="216" value="&lt;b&gt;&lt;i&gt;Returns:&lt;br&gt;&lt;/i&gt;&lt;/b&gt;" style="swimlane;fontStyle=0;childLayout=stackLayout;horizontal=1;startSize=30;horizontalStack=0;resizeParent=1;resizeParentMax=0;resizeLast=0;collapsible=1;marginBottom=0;whiteSpace=wrap;html=1;fillColor=#999999;" parent="1" vertex="1">
                    <mxGeometry x="2820" y="220" width="140" height="120" as="geometry"/>
                </mxCell>
                <mxCell id="337" value="&lt;span style=&quot;color: rgb(0, 0, 0);&quot;&gt;worked - bool&lt;/span&gt;" style="text;strokeColor=none;fillColor=#CCCCCC;align=left;verticalAlign=middle;spacingLeft=4;spacingRight=4;overflow=hidden;points=[[0,0.5],[1,0.5]];portConstraint=eastwest;rotatable=0;whiteSpace=wrap;html=1;" parent="216" vertex="1">
                    <mxGeometry y="30" width="140" height="30" as="geometry"/>
                </mxCell>
                <mxCell id="338" value="&lt;span style=&quot;color: rgb(0, 0, 0);&quot;&gt;Message - String&lt;/span&gt;" style="text;strokeColor=none;fillColor=#CCCCCC;align=left;verticalAlign=middle;spacingLeft=4;spacingRight=4;overflow=hidden;points=[[0,0.5],[1,0.5]];portConstraint=eastwest;rotatable=0;whiteSpace=wrap;html=1;" parent="216" vertex="1">
                    <mxGeometry y="60" width="140" height="30" as="geometry"/>
                </mxCell>
                <mxCell id="217" value="RoomsList[] - Rooms[]" style="text;strokeColor=none;fillColor=#CCCCCC;align=left;verticalAlign=middle;spacingLeft=4;spacingRight=4;overflow=hidden;points=[[0,0.5],[1,0.5]];portConstraint=eastwest;rotatable=0;whiteSpace=wrap;html=1;" parent="216" vertex="1">
                    <mxGeometry y="90" width="140" height="30" as="geometry"/>
                </mxCell>
                <mxCell id="220" value="&lt;b&gt;&lt;i&gt;Gallery Page&lt;/i&gt;&lt;/b&gt;" style="rounded=0;whiteSpace=wrap;html=1;fillColor=#999999;" parent="1" vertex="1">
                    <mxGeometry x="4760" y="105" width="120" height="60" as="geometry"/>
                </mxCell>
                <mxCell id="221" value="&lt;b&gt;&lt;i&gt;Create Room Page&lt;/i&gt;&lt;/b&gt;" style="rounded=0;whiteSpace=wrap;html=1;fillColor=#999999;" parent="1" vertex="1">
                    <mxGeometry x="4570" y="105" width="120" height="60" as="geometry"/>
                </mxCell>
                <mxCell id="222" value="&lt;b&gt;&lt;i&gt;Model Page&lt;/i&gt;&lt;/b&gt;" style="rounded=0;whiteSpace=wrap;html=1;fillColor=#999999;" parent="1" vertex="1">
                    <mxGeometry x="4330" y="105" width="120" height="60" as="geometry"/>
                </mxCell>
                <mxCell id="223" value="&lt;b&gt;&lt;i&gt;SignUp Page&lt;/i&gt;&lt;/b&gt;" style="rounded=0;whiteSpace=wrap;html=1;fillColor=#999999;" parent="1" vertex="1">
                    <mxGeometry x="5640" y="105" width="120" height="60" as="geometry"/>
                </mxCell>
                <mxCell id="224" value="&lt;div&gt;&lt;b&gt;&lt;i&gt;&lt;br&gt;&lt;/i&gt;&lt;/b&gt;&lt;/div&gt;&lt;b&gt;&lt;i&gt;&amp;nbsp;Mange Rooms Page&lt;/i&gt;&lt;/b&gt;" style="rounded=0;whiteSpace=wrap;html=1;fillColor=#999999;" parent="1" vertex="1">
                    <mxGeometry x="4980" y="105" width="120" height="60" as="geometry"/>
                </mxCell>
                <mxCell id="225" value="&lt;b&gt;&lt;i&gt;Info Page&lt;/i&gt;&lt;/b&gt;" style="rounded=0;whiteSpace=wrap;html=1;fillColor=#999999;" parent="1" vertex="1">
                    <mxGeometry x="5200" y="105" width="120" height="60" as="geometry"/>
                </mxCell>
                <mxCell id="228" value="&lt;b&gt;&lt;i&gt;Login Page&lt;/i&gt;&lt;/b&gt;" style="rounded=0;whiteSpace=wrap;html=1;fillColor=#999999;" parent="1" vertex="1">
                    <mxGeometry x="5410" y="105" width="120" height="60" as="geometry"/>
                </mxCell>
                <mxCell id="230" value="" style="endArrow=classic;html=1;entryX=0.5;entryY=0;entryDx=0;entryDy=0;exitX=0.5;exitY=1;exitDx=0;exitDy=0;edgeStyle=orthogonalEdgeStyle;" parent="1" source="39" target="213" edge="1">
                    <mxGeometry width="50" height="50" relative="1" as="geometry">
                        <mxPoint x="1430" y="-110" as="sourcePoint"/>
                        <mxPoint x="2380" y="50" as="targetPoint"/>
                        <Array as="points">
                            <mxPoint x="1420" y="-40"/>
                            <mxPoint x="2890" y="-40"/>
                        </Array>
                    </mxGeometry>
                </mxCell>
                <mxCell id="236" value="&lt;b&gt;&lt;i&gt;Search Models:&lt;/i&gt;&lt;/b&gt;" style="swimlane;fontStyle=0;childLayout=stackLayout;horizontal=1;startSize=30;horizontalStack=0;resizeParent=1;resizeParentMax=0;resizeLast=0;collapsible=1;marginBottom=0;whiteSpace=wrap;html=1;fillColor=#999999;" parent="1" vertex="1">
                    <mxGeometry x="520" y="40" width="140" height="60" as="geometry"/>
                </mxCell>
                <mxCell id="237" value="info - String" style="text;strokeColor=none;fillColor=#CCCCCC;align=left;verticalAlign=middle;spacingLeft=4;spacingRight=4;overflow=hidden;points=[[0,0.5],[1,0.5]];portConstraint=eastwest;rotatable=0;whiteSpace=wrap;html=1;" parent="236" vertex="1">
                    <mxGeometry y="30" width="140" height="30" as="geometry"/>
                </mxCell>
                <mxCell id="238" value="" style="endArrow=classic;html=1;entryX=0.5;entryY=0;entryDx=0;entryDy=0;" parent="1" source="237" target="239" edge="1">
                    <mxGeometry width="50" height="50" relative="1" as="geometry">
                        <mxPoint x="580" y="132" as="sourcePoint"/>
                        <mxPoint x="590" y="220" as="targetPoint"/>
                    </mxGeometry>
                </mxCell>
                <mxCell id="239" value="&lt;b&gt;&lt;i&gt;Returns:&lt;br&gt;&lt;/i&gt;&lt;/b&gt;" style="swimlane;fontStyle=0;childLayout=stackLayout;horizontal=1;startSize=30;horizontalStack=0;resizeParent=1;resizeParentMax=0;resizeLast=0;collapsible=1;marginBottom=0;whiteSpace=wrap;html=1;fillColor=#999999;" parent="1" vertex="1">
                    <mxGeometry x="520" y="220" width="140" height="120" as="geometry"/>
                </mxCell>
                <mxCell id="312" value="&lt;span style=&quot;color: rgb(0, 0, 0);&quot;&gt;Message - String&lt;/span&gt;" style="text;strokeColor=none;fillColor=#CCCCCC;align=left;verticalAlign=middle;spacingLeft=4;spacingRight=4;overflow=hidden;points=[[0,0.5],[1,0.5]];portConstraint=eastwest;rotatable=0;whiteSpace=wrap;html=1;" parent="239" vertex="1">
                    <mxGeometry y="30" width="140" height="30" as="geometry"/>
                </mxCell>
                <mxCell id="311" value="&lt;span style=&quot;color: rgb(0, 0, 0);&quot;&gt;worked - bool&lt;/span&gt;" style="text;strokeColor=none;fillColor=#CCCCCC;align=left;verticalAlign=middle;spacingLeft=4;spacingRight=4;overflow=hidden;points=[[0,0.5],[1,0.5]];portConstraint=eastwest;rotatable=0;whiteSpace=wrap;html=1;" parent="239" vertex="1">
                    <mxGeometry y="60" width="140" height="30" as="geometry"/>
                </mxCell>
                <mxCell id="240" value="&lt;span style=&quot;color: rgb(0, 0, 0);&quot;&gt;Models - List[String]&lt;/span&gt;" style="text;strokeColor=none;fillColor=#CCCCCC;align=left;verticalAlign=middle;spacingLeft=4;spacingRight=4;overflow=hidden;points=[[0,0.5],[1,0.5]];portConstraint=eastwest;rotatable=0;whiteSpace=wrap;html=1;" parent="239" vertex="1">
                    <mxGeometry y="90" width="140" height="30" as="geometry"/>
                </mxCell>
                <mxCell id="242" value="" style="endArrow=classic;html=1;entryX=0.5;entryY=0;entryDx=0;entryDy=0;exitX=0.5;exitY=1;exitDx=0;exitDy=0;edgeStyle=orthogonalEdgeStyle;" parent="1" source="39" target="236" edge="1">
                    <mxGeometry width="50" height="50" relative="1" as="geometry">
                        <mxPoint x="1430" y="-110" as="sourcePoint"/>
                        <mxPoint x="480" y="50" as="targetPoint"/>
                    </mxGeometry>
                </mxCell>
                <mxCell id="253" value="&lt;b&gt;&lt;i&gt;Admin Page&lt;/i&gt;&lt;/b&gt;" style="rounded=0;whiteSpace=wrap;html=1;fillColor=#999999;" parent="1" vertex="1">
                    <mxGeometry x="3920" y="105" width="120" height="60" as="geometry"/>
                </mxCell>
                <mxCell id="254" value="" style="endArrow=classic;html=1;exitX=0.5;exitY=1;exitDx=0;exitDy=0;edgeStyle=orthogonalEdgeStyle;entryX=0.5;entryY=0;entryDx=0;entryDy=0;" parent="1" source="145" target="253" edge="1">
                    <mxGeometry width="50" height="50" relative="1" as="geometry">
                        <mxPoint x="4500" y="-80" as="sourcePoint"/>
                        <mxPoint x="3550" y="80" as="targetPoint"/>
                        <Array as="points">
                            <mxPoint x="4680" y="20"/>
                            <mxPoint x="3980" y="20"/>
                        </Array>
                    </mxGeometry>
                </mxCell>
                <mxCell id="256" value="&lt;b&gt;&lt;i&gt;Edit Room page&lt;/i&gt;&lt;/b&gt;" style="rounded=0;whiteSpace=wrap;html=1;fillColor=#999999;" parent="1" vertex="1">
                    <mxGeometry x="3720" y="105" width="120" height="60" as="geometry"/>
                </mxCell>
                <mxCell id="257" value="" style="endArrow=classic;html=1;exitX=0.5;exitY=1;exitDx=0;exitDy=0;edgeStyle=orthogonalEdgeStyle;entryX=0.5;entryY=0;entryDx=0;entryDy=0;" parent="1" source="145" target="256" edge="1">
                    <mxGeometry width="50" height="50" relative="1" as="geometry">
                        <mxPoint x="4560" y="-90" as="sourcePoint"/>
                        <mxPoint x="3440" y="70" as="targetPoint"/>
                        <Array as="points">
                            <mxPoint x="4680" y="20"/>
                            <mxPoint x="3780" y="20"/>
                        </Array>
                    </mxGeometry>
                </mxCell>
                <mxCell id="288" value="" style="edgeStyle=none;html=1;entryX=0.5;entryY=0;entryDx=0;entryDy=0;" parent="1" source="258" target="261" edge="1">
                    <mxGeometry relative="1" as="geometry"/>
                </mxCell>
                <mxCell id="258" value="&lt;b&gt;&lt;i&gt;Delete Model&lt;/i&gt;&lt;/b&gt;" style="swimlane;fontStyle=0;childLayout=stackLayout;horizontal=1;startSize=30;horizontalStack=0;resizeParent=1;resizeParentMax=0;resizeLast=0;collapsible=1;marginBottom=0;whiteSpace=wrap;html=1;fillColor=#999999;" parent="1" vertex="1">
                    <mxGeometry x="330" y="40" width="140" height="90" as="geometry"/>
                </mxCell>
                <mxCell id="265" value="&lt;span style=&quot;color: rgb(0, 0, 0);&quot;&gt;ItemID - String&lt;/span&gt;" style="text;strokeColor=none;fillColor=#CCCCCC;align=left;verticalAlign=middle;spacingLeft=4;spacingRight=4;overflow=hidden;points=[[0,0.5],[1,0.5]];portConstraint=eastwest;rotatable=0;whiteSpace=wrap;html=1;" parent="258" vertex="1">
                    <mxGeometry y="30" width="140" height="30" as="geometry"/>
                </mxCell>
                <mxCell id="266" value="AdminID - userID" style="text;strokeColor=none;fillColor=#CCCCCC;align=left;verticalAlign=middle;spacingLeft=4;spacingRight=4;overflow=hidden;points=[[0,0.5],[1,0.5]];portConstraint=eastwest;rotatable=0;whiteSpace=wrap;html=1;" parent="258" vertex="1">
                    <mxGeometry y="60" width="140" height="30" as="geometry"/>
                </mxCell>
                <mxCell id="261" value="&lt;b&gt;&lt;i&gt;Returns:&lt;br&gt;&lt;/i&gt;&lt;/b&gt;" style="swimlane;fontStyle=0;childLayout=stackLayout;horizontal=1;startSize=30;horizontalStack=0;resizeParent=1;resizeParentMax=0;resizeLast=0;collapsible=1;marginBottom=0;whiteSpace=wrap;html=1;fillColor=#999999;" parent="1" vertex="1">
                    <mxGeometry x="330" y="370.06" width="140" height="90" as="geometry"/>
                </mxCell>
                <mxCell id="262" value="&lt;span style=&quot;color: rgb(0, 0, 0);&quot;&gt;worked - bool&lt;/span&gt;" style="text;strokeColor=none;fillColor=#CCCCCC;align=left;verticalAlign=middle;spacingLeft=4;spacingRight=4;overflow=hidden;points=[[0,0.5],[1,0.5]];portConstraint=eastwest;rotatable=0;whiteSpace=wrap;html=1;" parent="261" vertex="1">
                    <mxGeometry y="30" width="140" height="30" as="geometry"/>
                </mxCell>
                <mxCell id="271" value="&lt;span style=&quot;color: rgb(0, 0, 0);&quot;&gt;Message - String&lt;/span&gt;" style="text;strokeColor=none;fillColor=#CCCCCC;align=left;verticalAlign=middle;spacingLeft=4;spacingRight=4;overflow=hidden;points=[[0,0.5],[1,0.5]];portConstraint=eastwest;rotatable=0;whiteSpace=wrap;html=1;" parent="261" vertex="1">
                    <mxGeometry y="60" width="140" height="30" as="geometry"/>
                </mxCell>
                <mxCell id="304" value="&lt;b&gt;&lt;i&gt;IsAdmin&lt;/i&gt;&lt;/b&gt;" style="swimlane;fontStyle=0;childLayout=stackLayout;horizontal=1;startSize=30;horizontalStack=0;resizeParent=1;resizeParentMax=0;resizeLast=0;collapsible=1;marginBottom=0;whiteSpace=wrap;html=1;fillColor=#999999;" parent="1" vertex="1">
                    <mxGeometry x="130" y="40" width="140" height="60" as="geometry"/>
                </mxCell>
                <mxCell id="310" value="UserID- userID" style="text;strokeColor=none;fillColor=#CCCCCC;align=left;verticalAlign=middle;spacingLeft=4;spacingRight=4;overflow=hidden;points=[[0,0.5],[1,0.5]];portConstraint=eastwest;rotatable=0;whiteSpace=wrap;html=1;" parent="304" vertex="1">
                    <mxGeometry y="30" width="140" height="30" as="geometry"/>
                </mxCell>
                <mxCell id="305" value="" style="endArrow=classic;html=1;entryX=0.5;entryY=0;entryDx=0;entryDy=0;" parent="1" source="304" target="306" edge="1">
                    <mxGeometry width="50" height="50" relative="1" as="geometry">
                        <mxPoint x="200.70000000000027" y="309.9399999999998" as="sourcePoint"/>
                        <mxPoint x="200" y="220" as="targetPoint"/>
                    </mxGeometry>
                </mxCell>
                <mxCell id="306" value="&lt;b&gt;&lt;i&gt;Returns:&lt;br&gt;&lt;/i&gt;&lt;/b&gt;" style="swimlane;fontStyle=0;childLayout=stackLayout;horizontal=1;startSize=30;horizontalStack=0;resizeParent=1;resizeParentMax=0;resizeLast=0;collapsible=1;marginBottom=0;whiteSpace=wrap;html=1;fillColor=#999999;" parent="1" vertex="1">
                    <mxGeometry x="130" y="260" width="140" height="120" as="geometry"/>
                </mxCell>
                <mxCell id="307" value="&lt;span style=&quot;color: rgb(0, 0, 0);&quot;&gt;worked - bool&lt;/span&gt;" style="text;strokeColor=none;fillColor=#CCCCCC;align=left;verticalAlign=middle;spacingLeft=4;spacingRight=4;overflow=hidden;points=[[0,0.5],[1,0.5]];portConstraint=eastwest;rotatable=0;whiteSpace=wrap;html=1;" parent="306" vertex="1">
                    <mxGeometry y="30" width="140" height="30" as="geometry"/>
                </mxCell>
                <mxCell id="308" value="&lt;span style=&quot;color: rgb(0, 0, 0);&quot;&gt;Message - String&lt;/span&gt;" style="text;strokeColor=none;fillColor=#CCCCCC;align=left;verticalAlign=middle;spacingLeft=4;spacingRight=4;overflow=hidden;points=[[0,0.5],[1,0.5]];portConstraint=eastwest;rotatable=0;whiteSpace=wrap;html=1;" parent="306" vertex="1">
                    <mxGeometry y="60" width="140" height="30" as="geometry"/>
                </mxCell>
                <mxCell id="309" value="&lt;span style=&quot;color: rgb(0, 0, 0);&quot;&gt;IsAdmin - bool&lt;/span&gt;" style="text;strokeColor=none;fillColor=#CCCCCC;align=left;verticalAlign=middle;spacingLeft=4;spacingRight=4;overflow=hidden;points=[[0,0.5],[1,0.5]];portConstraint=eastwest;rotatable=0;whiteSpace=wrap;html=1;" parent="306" vertex="1">
                    <mxGeometry y="90" width="140" height="30" as="geometry"/>
                </mxCell>
                <mxCell id="341" value="" style="endArrow=classic;html=1;entryX=0.5;entryY=0;entryDx=0;entryDy=0;edgeStyle=orthogonalEdgeStyle;exitX=0.5;exitY=1;exitDx=0;exitDy=0;" parent="1" source="39" target="258" edge="1">
                    <mxGeometry width="50" height="50" relative="1" as="geometry">
                        <mxPoint x="1414.1666666666667" y="-40" as="sourcePoint"/>
                        <mxPoint x="-10" y="10" as="targetPoint"/>
                    </mxGeometry>
                </mxCell>
                <mxCell id="344" value="" style="endArrow=classic;html=1;entryX=0.5;entryY=0;entryDx=0;entryDy=0;edgeStyle=orthogonalEdgeStyle;exitX=0.5;exitY=1;exitDx=0;exitDy=0;" parent="1" source="39" target="304" edge="1">
                    <mxGeometry width="50" height="50" relative="1" as="geometry">
                        <mxPoint x="730" y="-110" as="sourcePoint"/>
                        <mxPoint x="-630" y="50" as="targetPoint"/>
                    </mxGeometry>
                </mxCell>
                <mxCell id="366" value="&lt;b&gt;&lt;i&gt;Unlist Model&lt;/i&gt;&lt;/b&gt;" style="swimlane;fontStyle=0;childLayout=stackLayout;horizontal=1;startSize=30;horizontalStack=0;resizeParent=1;resizeParentMax=0;resizeLast=0;collapsible=1;marginBottom=0;whiteSpace=wrap;html=1;fillColor=#999999;" parent="1" vertex="1">
                    <mxGeometry x="-90" y="40" width="140" height="90" as="geometry"/>
                </mxCell>
                <mxCell id="367" value="AdminID - userID" style="text;strokeColor=none;fillColor=#CCCCCC;align=left;verticalAlign=middle;spacingLeft=4;spacingRight=4;overflow=hidden;points=[[0,0.5],[1,0.5]];portConstraint=eastwest;rotatable=0;whiteSpace=wrap;html=1;" parent="366" vertex="1">
                    <mxGeometry y="30" width="140" height="30" as="geometry"/>
                </mxCell>
                <mxCell id="368" value="ProductID - String" style="text;strokeColor=none;fillColor=#CCCCCC;align=left;verticalAlign=middle;spacingLeft=4;spacingRight=4;overflow=hidden;points=[[0,0.5],[1,0.5]];portConstraint=eastwest;rotatable=0;whiteSpace=wrap;html=1;" parent="366" vertex="1">
                    <mxGeometry y="60" width="140" height="30" as="geometry"/>
                </mxCell>
                <mxCell id="369" value="" style="endArrow=classic;html=1;entryX=0.5;entryY=0;entryDx=0;entryDy=0;" parent="1" source="368" target="370" edge="1">
                    <mxGeometry width="50" height="50" relative="1" as="geometry">
                        <mxPoint x="-30" y="132" as="sourcePoint"/>
                        <mxPoint x="-20" y="220" as="targetPoint"/>
                    </mxGeometry>
                </mxCell>
                <mxCell id="370" value="&lt;b&gt;&lt;i&gt;Returns:&lt;br&gt;&lt;/i&gt;&lt;/b&gt;" style="swimlane;fontStyle=0;childLayout=stackLayout;horizontal=1;startSize=30;horizontalStack=0;resizeParent=1;resizeParentMax=0;resizeLast=0;collapsible=1;marginBottom=0;whiteSpace=wrap;html=1;fillColor=#999999;" parent="1" vertex="1">
                    <mxGeometry x="-90" y="220" width="140" height="90" as="geometry"/>
                </mxCell>
                <mxCell id="371" value="&lt;span style=&quot;color: rgb(0, 0, 0);&quot;&gt;worked - bool&lt;/span&gt;" style="text;strokeColor=none;fillColor=#CCCCCC;align=left;verticalAlign=middle;spacingLeft=4;spacingRight=4;overflow=hidden;points=[[0,0.5],[1,0.5]];portConstraint=eastwest;rotatable=0;whiteSpace=wrap;html=1;" parent="370" vertex="1">
                    <mxGeometry y="30" width="140" height="30" as="geometry"/>
                </mxCell>
                <mxCell id="372" value="&lt;span style=&quot;color: rgb(0, 0, 0);&quot;&gt;Message - String&lt;/span&gt;" style="text;strokeColor=none;fillColor=#CCCCCC;align=left;verticalAlign=middle;spacingLeft=4;spacingRight=4;overflow=hidden;points=[[0,0.5],[1,0.5]];portConstraint=eastwest;rotatable=0;whiteSpace=wrap;html=1;" parent="370" vertex="1">
                    <mxGeometry y="60" width="140" height="30" as="geometry"/>
                </mxCell>
                <mxCell id="373" value="" style="endArrow=classic;html=1;entryX=0.5;entryY=0;entryDx=0;entryDy=0;edgeStyle=orthogonalEdgeStyle;exitX=0.5;exitY=1;exitDx=0;exitDy=0;" parent="1" source="39" target="366" edge="1">
                    <mxGeometry width="50" height="50" relative="1" as="geometry">
                        <mxPoint x="1130" y="-70" as="sourcePoint"/>
                        <mxPoint x="-470" y="90" as="targetPoint"/>
                        <Array as="points">
                            <mxPoint x="1420" y="-40"/>
                            <mxPoint x="-20" y="-40"/>
                        </Array>
                    </mxGeometry>
                </mxCell>
                <mxCell id="380" value="&lt;b&gt;&lt;i&gt;Room&lt;/i&gt;&lt;/b&gt;" style="swimlane;fontStyle=0;childLayout=stackLayout;horizontal=1;startSize=30;horizontalStack=0;resizeParent=1;resizeParentMax=0;resizeLast=0;collapsible=1;marginBottom=0;whiteSpace=wrap;html=1;fillColor=#999999;" parent="1" vertex="1">
                    <mxGeometry x="-1900" y="100" width="140" height="180" as="geometry"/>
                </mxCell>
                <mxCell id="381" value="Name - String" style="text;strokeColor=none;fillColor=#CCCCCC;align=left;verticalAlign=middle;spacingLeft=4;spacingRight=4;overflow=hidden;points=[[0,0.5],[1,0.5]];portConstraint=eastwest;rotatable=0;whiteSpace=wrap;html=1;" parent="380" vertex="1">
                    <mxGeometry y="30" width="140" height="30" as="geometry"/>
                </mxCell>
                <mxCell id="382" value="Description - String" style="text;strokeColor=none;fillColor=#CCCCCC;align=left;verticalAlign=middle;spacingLeft=4;spacingRight=4;overflow=hidden;points=[[0,0.5],[1,0.5]];portConstraint=eastwest;rotatable=0;whiteSpace=wrap;html=1;" parent="380" vertex="1">
                    <mxGeometry y="60" width="140" height="30" as="geometry"/>
                </mxCell>
                <mxCell id="383" value="RoomFile - File Location" style="text;strokeColor=none;fillColor=#CCCCCC;align=left;verticalAlign=middle;spacingLeft=4;spacingRight=4;overflow=hidden;points=[[0,0.5],[1,0.5]];portConstraint=eastwest;rotatable=0;whiteSpace=wrap;html=1;" parent="380" vertex="1">
                    <mxGeometry y="90" width="140" height="30" as="geometry"/>
                </mxCell>
                <mxCell id="391" value="model - RoomModels" style="text;strokeColor=none;fillColor=#CCCCCC;align=left;verticalAlign=middle;spacingLeft=4;spacingRight=4;overflow=hidden;points=[[0,0.5],[1,0.5]];portConstraint=eastwest;rotatable=0;whiteSpace=wrap;html=1;" parent="380" vertex="1">
                    <mxGeometry y="120" width="140" height="30" as="geometry"/>
                </mxCell>
                <mxCell id="384" value="Sizes - []" style="text;strokeColor=none;fillColor=#CCCCCC;align=left;verticalAlign=middle;spacingLeft=4;spacingRight=4;overflow=hidden;points=[[0,0.5],[1,0.5]];portConstraint=eastwest;rotatable=0;whiteSpace=wrap;html=1;" parent="380" vertex="1">
                    <mxGeometry y="150" width="140" height="30" as="geometry"/>
                </mxCell>
                <mxCell id="397" value="" style="endArrow=classic;html=1;fillColor=#f8cecc;strokeColor=#b85450;rounded=0;curved=1;dashed=1;entryX=0.5;entryY=0;entryDx=0;entryDy=0;exitX=0.5;exitY=1;exitDx=0;exitDy=0;edgeStyle=orthogonalEdgeStyle;" parent="1" source="223" target="55" edge="1">
                    <mxGeometry width="50" height="50" relative="1" as="geometry">
                        <mxPoint x="3100" y="400" as="sourcePoint"/>
                        <mxPoint x="3240" y="730" as="targetPoint"/>
                        <Array as="points">
                            <mxPoint x="5700" y="400"/>
                            <mxPoint x="3380" y="400"/>
                            <mxPoint x="3380" y="-110"/>
                            <mxPoint x="1050" y="-110"/>
                        </Array>
                    </mxGeometry>
                </mxCell>
                <mxCell id="398" value="" style="endArrow=classic;html=1;fillColor=#f8cecc;strokeColor=#b85450;rounded=0;curved=1;dashed=1;entryX=0.5;entryY=0;entryDx=0;entryDy=0;exitX=0.5;exitY=1;exitDx=0;exitDy=0;edgeStyle=orthogonalEdgeStyle;" parent="1" source="228" target="44" edge="1">
                    <mxGeometry width="50" height="50" relative="1" as="geometry">
                        <mxPoint x="5510" y="225" as="sourcePoint"/>
                        <mxPoint x="860" y="100" as="targetPoint"/>
                        <Array as="points">
                            <mxPoint x="5470" y="460"/>
                            <mxPoint x="3370" y="460"/>
                            <mxPoint x="3370" y="-90"/>
                            <mxPoint x="810" y="-90"/>
                        </Array>
                    </mxGeometry>
                </mxCell>
                <mxCell id="399" value="" style="endArrow=classic;html=1;fillColor=#f8cecc;strokeColor=#b85450;rounded=0;curved=1;dashed=1;entryX=0.5;entryY=0;entryDx=0;entryDy=0;exitX=0.5;exitY=1;exitDx=0;exitDy=0;edgeStyle=orthogonalEdgeStyle;" parent="1" source="224" target="213" edge="1">
                    <mxGeometry width="50" height="50" relative="1" as="geometry">
                        <mxPoint x="5710" y="175" as="sourcePoint"/>
                        <mxPoint x="1060" y="50" as="targetPoint"/>
                        <Array as="points">
                            <mxPoint x="5040" y="410"/>
                            <mxPoint x="3390" y="410"/>
                            <mxPoint x="3390" y="-50"/>
                            <mxPoint x="2890" y="-50"/>
                        </Array>
                    </mxGeometry>
                </mxCell>
                <mxCell id="401" value="" style="endArrow=classic;html=1;fillColor=#f8cecc;strokeColor=#b85450;rounded=0;curved=1;dashed=1;entryX=0.5;entryY=0;entryDx=0;entryDy=0;exitX=0.5;exitY=1;exitDx=0;exitDy=0;edgeStyle=orthogonalEdgeStyle;" parent="1" source="224" target="130" edge="1">
                    <mxGeometry width="50" height="50" relative="1" as="geometry">
                        <mxPoint x="5050" y="175" as="sourcePoint"/>
                        <mxPoint x="2900" y="50" as="targetPoint"/>
                        <Array as="points">
                            <mxPoint x="5040" y="420"/>
                            <mxPoint x="3400" y="420"/>
                            <mxPoint x="3400" y="-70"/>
                            <mxPoint x="2710" y="-70"/>
                        </Array>
                    </mxGeometry>
                </mxCell>
                <mxCell id="402" value="" style="endArrow=classic;html=1;fillColor=#f8cecc;strokeColor=#b85450;rounded=0;curved=1;dashed=1;entryX=0.5;entryY=0;entryDx=0;entryDy=0;exitX=0.5;exitY=1;exitDx=0;exitDy=0;edgeStyle=orthogonalEdgeStyle;" parent="1" source="220" target="124" edge="1">
                    <mxGeometry width="50" height="50" relative="1" as="geometry">
                        <mxPoint x="5050" y="175" as="sourcePoint"/>
                        <mxPoint x="2900" y="50" as="targetPoint"/>
                        <Array as="points">
                            <mxPoint x="4820" y="420"/>
                            <mxPoint x="3400" y="420"/>
                            <mxPoint x="3400" y="-70"/>
                            <mxPoint x="2480" y="-70"/>
                        </Array>
                    </mxGeometry>
                </mxCell>
                <mxCell id="403" value="" style="endArrow=classic;html=1;fillColor=#f8cecc;strokeColor=#b85450;rounded=0;curved=1;dashed=1;entryX=0.5;entryY=0;entryDx=0;entryDy=0;exitX=0.5;exitY=1;exitDx=0;exitDy=0;edgeStyle=orthogonalEdgeStyle;" parent="1" source="222" target="118" edge="1">
                    <mxGeometry width="50" height="50" relative="1" as="geometry">
                        <mxPoint x="4830" y="175" as="sourcePoint"/>
                        <mxPoint x="2490" y="50" as="targetPoint"/>
                        <Array as="points">
                            <mxPoint x="4390" y="430"/>
                            <mxPoint x="3410" y="430"/>
                            <mxPoint x="3410" y="-80"/>
                            <mxPoint x="2260" y="-80"/>
                        </Array>
                    </mxGeometry>
                </mxCell>
                <mxCell id="404" value="" style="endArrow=classic;html=1;fillColor=#f8cecc;strokeColor=#b85450;rounded=0;curved=1;dashed=1;entryX=0.5;entryY=0;entryDx=0;entryDy=0;exitX=0.5;exitY=1;exitDx=0;exitDy=0;edgeStyle=orthogonalEdgeStyle;" parent="1" source="256" target="118" edge="1">
                    <mxGeometry width="50" height="50" relative="1" as="geometry">
                        <mxPoint x="4400" y="175" as="sourcePoint"/>
                        <mxPoint x="2270" y="50" as="targetPoint"/>
                        <Array as="points">
                            <mxPoint x="3780" y="440"/>
                            <mxPoint x="3420" y="440"/>
                            <mxPoint x="3420" y="-90"/>
                            <mxPoint x="2260" y="-90"/>
                        </Array>
                    </mxGeometry>
                </mxCell>
                <mxCell id="405" value="" style="endArrow=classic;html=1;fillColor=#f8cecc;strokeColor=#b85450;rounded=0;curved=1;dashed=1;entryX=0.5;entryY=0;entryDx=0;entryDy=0;exitX=0.5;exitY=1;exitDx=0;exitDy=0;edgeStyle=orthogonalEdgeStyle;" parent="1" source="224" target="118" edge="1">
                    <mxGeometry width="50" height="50" relative="1" as="geometry">
                        <mxPoint x="3790" y="175" as="sourcePoint"/>
                        <mxPoint x="2270" y="50" as="targetPoint"/>
                        <Array as="points">
                            <mxPoint x="5040" y="450"/>
                            <mxPoint x="3430" y="450"/>
                            <mxPoint x="3430" y="-70"/>
                            <mxPoint x="2260" y="-70"/>
                        </Array>
                    </mxGeometry>
                </mxCell>
                <mxCell id="407" value="" style="endArrow=classic;html=1;fillColor=#f8cecc;strokeColor=#b85450;rounded=0;curved=1;dashed=1;entryX=0.5;entryY=0;entryDx=0;entryDy=0;exitX=0.5;exitY=1;exitDx=0;exitDy=0;edgeStyle=orthogonalEdgeStyle;" parent="1" source="256" target="84" edge="1">
                    <mxGeometry width="50" height="50" relative="1" as="geometry">
                        <mxPoint x="3790" y="175" as="sourcePoint"/>
                        <mxPoint x="2270" y="50" as="targetPoint"/>
                        <Array as="points">
                            <mxPoint x="3780" y="450"/>
                            <mxPoint x="3430" y="450"/>
                            <mxPoint x="3430" y="-80"/>
                            <mxPoint x="2040" y="-80"/>
                        </Array>
                    </mxGeometry>
                </mxCell>
                <mxCell id="409" value="" style="endArrow=classic;html=1;fillColor=#f8cecc;strokeColor=#b85450;rounded=0;curved=1;dashed=1;entryX=0.5;entryY=0;entryDx=0;entryDy=0;exitX=0.5;exitY=1;exitDx=0;exitDy=0;edgeStyle=orthogonalEdgeStyle;" parent="1" source="221" target="105" edge="1">
                    <mxGeometry width="50" height="50" relative="1" as="geometry">
                        <mxPoint x="4400" y="175" as="sourcePoint"/>
                        <mxPoint x="2270" y="50" as="targetPoint"/>
                        <Array as="points">
                            <mxPoint x="4630" y="440"/>
                            <mxPoint x="3420" y="440"/>
                            <mxPoint x="3420" y="-90"/>
                            <mxPoint x="1820" y="-90"/>
                        </Array>
                    </mxGeometry>
                </mxCell>
                <mxCell id="411" value="" style="endArrow=classic;html=1;fillColor=#f8cecc;strokeColor=#b85450;rounded=0;curved=1;dashed=1;entryX=0.5;entryY=0;entryDx=0;entryDy=0;exitX=0.5;exitY=1;exitDx=0;exitDy=0;edgeStyle=orthogonalEdgeStyle;" parent="1" source="220" target="236" edge="1">
                    <mxGeometry width="50" height="50" relative="1" as="geometry">
                        <mxPoint x="4830" y="175" as="sourcePoint"/>
                        <mxPoint x="2490" y="50" as="targetPoint"/>
                        <Array as="points">
                            <mxPoint x="4820" y="430"/>
                            <mxPoint x="3410" y="430"/>
                            <mxPoint x="3410" y="-60"/>
                            <mxPoint x="2490" y="-60"/>
                            <mxPoint x="2490" y="-80"/>
                            <mxPoint x="590" y="-80"/>
                        </Array>
                    </mxGeometry>
                </mxCell>
                <mxCell id="412" value="" style="endArrow=classic;html=1;fillColor=#f8cecc;strokeColor=#b85450;rounded=0;curved=1;dashed=1;entryX=0.5;entryY=0;entryDx=0;entryDy=0;exitX=0.5;exitY=1;exitDx=0;exitDy=0;edgeStyle=orthogonalEdgeStyle;" parent="1" source="253" target="130" edge="1">
                    <mxGeometry width="50" height="50" relative="1" as="geometry">
                        <mxPoint x="4400" y="175" as="sourcePoint"/>
                        <mxPoint x="2270" y="50" as="targetPoint"/>
                        <Array as="points">
                            <mxPoint x="3980" y="440"/>
                            <mxPoint x="3420" y="440"/>
                            <mxPoint x="3420" y="-70"/>
                            <mxPoint x="2710" y="-70"/>
                        </Array>
                    </mxGeometry>
                </mxCell>
                <mxCell id="413" value="" style="endArrow=classic;html=1;fillColor=#f8cecc;strokeColor=#b85450;rounded=0;curved=1;dashed=1;entryX=0.5;entryY=0;entryDx=0;entryDy=0;exitX=0.5;exitY=1;exitDx=0;exitDy=0;edgeStyle=orthogonalEdgeStyle;" parent="1" source="253" target="213" edge="1">
                    <mxGeometry width="50" height="50" relative="1" as="geometry">
                        <mxPoint x="3990" y="175" as="sourcePoint"/>
                        <mxPoint x="2280" y="60" as="targetPoint"/>
                        <Array as="points">
                            <mxPoint x="3980" y="450"/>
                            <mxPoint x="3430" y="450"/>
                            <mxPoint x="3430" y="-60"/>
                            <mxPoint x="2890" y="-60"/>
                        </Array>
                    </mxGeometry>
                </mxCell>
                <mxCell id="414" value="" style="endArrow=classic;html=1;fillColor=#f8cecc;strokeColor=#b85450;rounded=0;curved=1;dashed=1;entryX=0.5;entryY=0;entryDx=0;entryDy=0;exitX=0.5;exitY=1;exitDx=0;exitDy=0;edgeStyle=orthogonalEdgeStyle;" parent="1" source="253" target="124" edge="1">
                    <mxGeometry width="50" height="50" relative="1" as="geometry">
                        <mxPoint x="3990" y="175" as="sourcePoint"/>
                        <mxPoint x="2900" y="50" as="targetPoint"/>
                        <Array as="points">
                            <mxPoint x="3980" y="460"/>
                            <mxPoint x="3440" y="460"/>
                            <mxPoint x="3440" y="-50"/>
                            <mxPoint x="2480" y="-50"/>
                        </Array>
                    </mxGeometry>
                </mxCell>
                <mxCell id="415" value="" style="endArrow=classic;html=1;fillColor=#f8cecc;strokeColor=#b85450;rounded=0;curved=1;dashed=1;entryX=0.5;entryY=0;entryDx=0;entryDy=0;exitX=0.5;exitY=1;exitDx=0;exitDy=0;edgeStyle=orthogonalEdgeStyle;" parent="1" source="253" target="105" edge="1">
                    <mxGeometry width="50" height="50" relative="1" as="geometry">
                        <mxPoint x="3990" y="175" as="sourcePoint"/>
                        <mxPoint x="2490" y="50" as="targetPoint"/>
                        <Array as="points">
                            <mxPoint x="3980" y="470"/>
                            <mxPoint x="3450" y="470"/>
                            <mxPoint x="3450" y="-80"/>
                            <mxPoint x="1820" y="-80"/>
                        </Array>
                    </mxGeometry>
                </mxCell>
                <mxCell id="416" value="" style="endArrow=classic;html=1;fillColor=#f8cecc;strokeColor=#b85450;rounded=0;curved=1;dashed=1;entryX=0.5;entryY=0;entryDx=0;entryDy=0;exitX=0.5;exitY=1;exitDx=0;exitDy=0;edgeStyle=orthogonalEdgeStyle;" parent="1" source="253" target="51" edge="1">
                    <mxGeometry width="50" height="50" relative="1" as="geometry">
                        <mxPoint x="3980.000000000001" y="205" as="sourcePoint"/>
                        <mxPoint x="1830" y="90" as="targetPoint"/>
                        <Array as="points">
                            <mxPoint x="3980" y="520"/>
                            <mxPoint x="3460" y="520"/>
                            <mxPoint x="3460" y="-80"/>
                            <mxPoint x="1600" y="-80"/>
                        </Array>
                    </mxGeometry>
                </mxCell>
                <mxCell id="417" value="" style="endArrow=classic;html=1;fillColor=#f8cecc;strokeColor=#b85450;rounded=0;curved=1;dashed=1;entryX=0.5;entryY=0;entryDx=0;entryDy=0;exitX=0.5;exitY=1;exitDx=0;exitDy=0;edgeStyle=orthogonalEdgeStyle;" parent="1" source="253" target="96" edge="1">
                    <mxGeometry width="50" height="50" relative="1" as="geometry">
                        <mxPoint x="3990" y="175" as="sourcePoint"/>
                        <mxPoint x="1610" y="50" as="targetPoint"/>
                        <Array as="points">
                            <mxPoint x="3980" y="530"/>
                            <mxPoint x="3470" y="530"/>
                            <mxPoint x="3470" y="-70"/>
                            <mxPoint x="1330" y="-70"/>
                        </Array>
                    </mxGeometry>
                </mxCell>
                <mxCell id="418" value="" style="endArrow=classic;html=1;fillColor=#f8cecc;strokeColor=#b85450;rounded=0;curved=1;dashed=1;entryX=0.5;entryY=0;entryDx=0;entryDy=0;exitX=0.5;exitY=1;exitDx=0;exitDy=0;edgeStyle=orthogonalEdgeStyle;" parent="1" source="253" target="258" edge="1">
                    <mxGeometry width="50" height="50" relative="1" as="geometry">
                        <mxPoint x="3990" y="175" as="sourcePoint"/>
                        <mxPoint x="1340" y="50" as="targetPoint"/>
                        <Array as="points">
                            <mxPoint x="3980" y="540"/>
                            <mxPoint x="3480" y="540"/>
                            <mxPoint x="3480" y="-90"/>
                            <mxPoint x="400" y="-90"/>
                        </Array>
                    </mxGeometry>
                </mxCell>
                <mxCell id="419" value="" style="endArrow=classic;html=1;fillColor=#f8cecc;strokeColor=#b85450;rounded=0;curved=1;dashed=1;entryX=0.5;entryY=0;entryDx=0;entryDy=0;exitX=0.5;exitY=1;exitDx=0;exitDy=0;edgeStyle=orthogonalEdgeStyle;" parent="1" source="253" target="366" edge="1">
                    <mxGeometry width="50" height="50" relative="1" as="geometry">
                        <mxPoint x="3990" y="175" as="sourcePoint"/>
                        <mxPoint x="410" y="50" as="targetPoint"/>
                        <Array as="points">
                            <mxPoint x="3980" y="550"/>
                            <mxPoint x="3490" y="550"/>
                            <mxPoint x="3490" y="-90"/>
                            <mxPoint x="-20" y="-90"/>
                        </Array>
                    </mxGeometry>
                </mxCell>
                <mxCell id="421" value="" style="endArrow=classic;html=1;dashed=1;dashPattern=12 12;rounded=0;curved=1;fillColor=#fff2cc;strokeColor=#d6b656;edgeStyle=orthogonalEdgeStyle;exitX=0.5;exitY=1;exitDx=0;exitDy=0;entryX=0.5;entryY=1;entryDx=0;entryDy=0;" parent="1" source="216" target="380" edge="1">
                    <mxGeometry width="50" height="50" relative="1" as="geometry">
                        <mxPoint x="710" y="1030" as="sourcePoint"/>
                        <mxPoint x="1400" y="870" as="targetPoint"/>
                        <Array as="points">
                            <mxPoint x="2890" y="1130"/>
                            <mxPoint x="-1830" y="1130"/>
                        </Array>
                    </mxGeometry>
                </mxCell>
                <mxCell id="423" value="" style="endArrow=classic;html=1;dashed=1;dashPattern=12 12;rounded=0;curved=1;fillColor=#fff2cc;strokeColor=#d6b656;edgeStyle=orthogonalEdgeStyle;exitX=0.5;exitY=1;exitDx=0;exitDy=0;entryX=0.5;entryY=1;entryDx=0;entryDy=0;" parent="1" source="133" target="380" edge="1">
                    <mxGeometry width="50" height="50" relative="1" as="geometry">
                        <mxPoint x="2880" y="490" as="sourcePoint"/>
                        <mxPoint x="-1840" y="430" as="targetPoint"/>
                        <Array as="points">
                            <mxPoint x="2710" y="1280"/>
                            <mxPoint x="-1830" y="1280"/>
                        </Array>
                    </mxGeometry>
                </mxCell>
                <mxCell id="424" value="" style="endArrow=classic;html=1;dashed=1;dashPattern=12 12;rounded=0;curved=1;fillColor=#fff2cc;strokeColor=#d6b656;edgeStyle=orthogonalEdgeStyle;exitX=0.5;exitY=1;exitDx=0;exitDy=0;entryX=0.5;entryY=1;entryDx=0;entryDy=0;" parent="1" source="127" target="25" edge="1">
                    <mxGeometry width="50" height="50" relative="1" as="geometry">
                        <mxPoint x="2590" y="470" as="sourcePoint"/>
                        <mxPoint x="-1950" y="440" as="targetPoint"/>
                        <Array as="points">
                            <mxPoint x="2480" y="1440"/>
                            <mxPoint x="-1390" y="1440"/>
                        </Array>
                    </mxGeometry>
                </mxCell>
                <mxCell id="425" value="" style="endArrow=classic;html=1;dashed=1;dashPattern=12 12;rounded=0;curved=1;fillColor=#fff2cc;strokeColor=#d6b656;edgeStyle=orthogonalEdgeStyle;exitX=0.5;exitY=1;exitDx=0;exitDy=0;entryX=0.5;entryY=1;entryDx=0;entryDy=0;" parent="1" source="122" target="25" edge="1">
                    <mxGeometry width="50" height="50" relative="1" as="geometry">
                        <mxPoint x="2490" y="350" as="sourcePoint"/>
                        <mxPoint x="-1400" y="450" as="targetPoint"/>
                        <Array as="points">
                            <mxPoint x="2260" y="1450"/>
                            <mxPoint x="-1390" y="1450"/>
                        </Array>
                    </mxGeometry>
                </mxCell>
                <mxCell id="426" value="" style="endArrow=classic;html=1;dashed=1;dashPattern=12 12;rounded=0;curved=1;fillColor=#fff2cc;strokeColor=#d6b656;edgeStyle=orthogonalEdgeStyle;exitX=0.5;exitY=1;exitDx=0;exitDy=0;entryX=0.5;entryY=1;entryDx=0;entryDy=0;" parent="1" source="92" target="380" edge="1">
                    <mxGeometry width="50" height="50" relative="1" as="geometry">
                        <mxPoint x="2270" y="350" as="sourcePoint"/>
                        <mxPoint x="-1380" y="470" as="targetPoint"/>
                        <Array as="points">
                            <mxPoint x="2040" y="1460"/>
                            <mxPoint x="-1830" y="1460"/>
                        </Array>
                    </mxGeometry>
                </mxCell>
                <mxCell id="427" value="" style="endArrow=classic;html=1;dashed=1;dashPattern=12 12;rounded=0;curved=1;fillColor=#fff2cc;strokeColor=#d6b656;edgeStyle=orthogonalEdgeStyle;exitX=0.5;exitY=1;exitDx=0;exitDy=0;entryX=0.5;entryY=1;entryDx=0;entryDy=0;" parent="1" source="108" target="380" edge="1">
                    <mxGeometry width="50" height="50" relative="1" as="geometry">
                        <mxPoint x="1830" y="380" as="sourcePoint"/>
                        <mxPoint x="-1590" y="540" as="targetPoint"/>
                        <Array as="points">
                            <mxPoint x="1820" y="1530"/>
                            <mxPoint x="-1830" y="1530"/>
                        </Array>
                    </mxGeometry>
                </mxCell>
                <mxCell id="428" value="" style="endArrow=classic;html=1;dashed=1;dashPattern=12 12;rounded=0;curved=1;fillColor=#fff2cc;strokeColor=#d6b656;edgeStyle=orthogonalEdgeStyle;exitX=0.5;exitY=1;exitDx=0;exitDy=0;entryX=0.5;entryY=1;entryDx=0;entryDy=0;" parent="1" source="99" target="25" edge="1">
                    <mxGeometry width="50" height="50" relative="1" as="geometry">
                        <mxPoint x="1330" y="390" as="sourcePoint"/>
                        <mxPoint x="-2090" y="550" as="targetPoint"/>
                        <Array as="points">
                            <mxPoint x="1330" y="1540"/>
                            <mxPoint x="-1390" y="1540"/>
                        </Array>
                    </mxGeometry>
                </mxCell>
                <mxCell id="429" value="" style="endArrow=classic;html=1;dashed=1;dashPattern=12 12;rounded=0;curved=1;fillColor=#fff2cc;strokeColor=#d6b656;edgeStyle=orthogonalEdgeStyle;exitX=0.5;exitY=1;exitDx=0;exitDy=0;entryX=0.5;entryY=1;entryDx=0;entryDy=0;" parent="1" source="78" target="25" edge="1">
                    <mxGeometry width="50" height="50" relative="1" as="geometry">
                        <mxPoint x="1600" y="340" as="sourcePoint"/>
                        <mxPoint x="-1820" y="500" as="targetPoint"/>
                        <Array as="points">
                            <mxPoint x="1600" y="1490"/>
                            <mxPoint x="-1390" y="1490"/>
                        </Array>
                    </mxGeometry>
                </mxCell>
                <mxCell id="430" value="" style="endArrow=classic;html=1;dashed=1;dashPattern=12 12;rounded=0;curved=1;fillColor=#fff2cc;strokeColor=#d6b656;edgeStyle=orthogonalEdgeStyle;exitX=0.486;exitY=0.878;exitDx=0;exitDy=0;entryX=0.5;entryY=1;entryDx=0;entryDy=0;exitPerimeter=0;" parent="1" source="70" target="17" edge="1">
                    <mxGeometry width="50" height="50" relative="1" as="geometry">
                        <mxPoint x="1040" y="360" as="sourcePoint"/>
                        <mxPoint x="-1680" y="480" as="targetPoint"/>
                        <Array as="points">
                            <mxPoint x="1048" y="1560"/>
                            <mxPoint x="-2050" y="1560"/>
                        </Array>
                    </mxGeometry>
                </mxCell>
                <mxCell id="431" value="" style="endArrow=classic;html=1;dashed=1;dashPattern=12 12;rounded=0;curved=1;fillColor=#fff2cc;strokeColor=#d6b656;edgeStyle=orthogonalEdgeStyle;exitX=0.5;exitY=1;exitDx=0;exitDy=0;entryX=0.5;entryY=1;entryDx=0;entryDy=0;" parent="1" source="73" target="17" edge="1">
                    <mxGeometry width="50" height="50" relative="1" as="geometry">
                        <mxPoint x="800" y="370" as="sourcePoint"/>
                        <mxPoint x="-1920" y="490" as="targetPoint"/>
                        <Array as="points">
                            <mxPoint x="810" y="1570"/>
                            <mxPoint x="-2050" y="1570"/>
                        </Array>
                    </mxGeometry>
                </mxCell>
                <mxCell id="432" value="" style="endArrow=classic;html=1;dashed=1;dashPattern=12 12;rounded=0;curved=1;fillColor=#fff2cc;strokeColor=#d6b656;edgeStyle=orthogonalEdgeStyle;exitX=0.5;exitY=1;exitDx=0;exitDy=0;entryX=0.5;entryY=1;entryDx=0;entryDy=0;" parent="1" source="239" target="25" edge="1">
                    <mxGeometry width="50" height="50" relative="1" as="geometry">
                        <mxPoint x="580" y="360" as="sourcePoint"/>
                        <mxPoint x="-2140" y="480" as="targetPoint"/>
                        <Array as="points">
                            <mxPoint x="590" y="1560"/>
                            <mxPoint x="-1390" y="1560"/>
                        </Array>
                    </mxGeometry>
                </mxCell>
                <mxCell id="433" value="" style="endArrow=classic;html=1;dashed=1;dashPattern=12 12;rounded=0;curved=1;fillColor=#fff2cc;strokeColor=#d6b656;edgeStyle=orthogonalEdgeStyle;exitX=0.5;exitY=1;exitDx=0;exitDy=0;entryX=0.5;entryY=1;entryDx=0;entryDy=0;" parent="1" source="261" target="25" edge="1">
                    <mxGeometry width="50" height="50" relative="1" as="geometry">
                        <mxPoint x="390" y="480" as="sourcePoint"/>
                        <mxPoint x="-2330" y="600" as="targetPoint"/>
                        <Array as="points">
                            <mxPoint x="400" y="1680"/>
                            <mxPoint x="-1390" y="1680"/>
                        </Array>
                    </mxGeometry>
                </mxCell>
                <mxCell id="434" value="" style="endArrow=classic;html=1;dashed=1;dashPattern=12 12;rounded=0;curved=1;fillColor=#fff2cc;strokeColor=#d6b656;edgeStyle=orthogonalEdgeStyle;exitX=0.5;exitY=1;exitDx=0;exitDy=0;entryX=0.5;entryY=1;entryDx=0;entryDy=0;" parent="1" source="306" target="17" edge="1">
                    <mxGeometry width="50" height="50" relative="1" as="geometry">
                        <mxPoint x="190" y="520" as="sourcePoint"/>
                        <mxPoint x="-1600" y="520" as="targetPoint"/>
                        <Array as="points">
                            <mxPoint x="200" y="1620"/>
                            <mxPoint x="-2050" y="1620"/>
                        </Array>
                    </mxGeometry>
                </mxCell>
                <mxCell id="435" value="" style="endArrow=classic;html=1;dashed=1;dashPattern=12 12;rounded=0;curved=1;fillColor=#fff2cc;strokeColor=#d6b656;edgeStyle=orthogonalEdgeStyle;exitX=0.5;exitY=1;exitDx=0;exitDy=0;entryX=0.5;entryY=1;entryDx=0;entryDy=0;" parent="1" source="370" target="25" edge="1">
                    <mxGeometry width="50" height="50" relative="1" as="geometry">
                        <mxPoint x="-40" y="410" as="sourcePoint"/>
                        <mxPoint x="-1830" y="410" as="targetPoint"/>
                        <Array as="points">
                            <mxPoint x="-20" y="1630"/>
                            <mxPoint x="-1390" y="1630"/>
                        </Array>
                    </mxGeometry>
                </mxCell>
                <mxCell id="436" value="&lt;b&gt;&lt;i&gt;Get Room&lt;/i&gt;&lt;/b&gt;" style="swimlane;fontStyle=0;childLayout=stackLayout;horizontal=1;startSize=30;horizontalStack=0;resizeParent=1;resizeParentMax=0;resizeLast=0;collapsible=1;marginBottom=0;whiteSpace=wrap;html=1;fillColor=#999999;" vertex="1" parent="1">
                    <mxGeometry x="2990" y="40" width="140" height="90" as="geometry"/>
                </mxCell>
                <mxCell id="437" value="RoomID - String" style="text;strokeColor=none;fillColor=#CCCCCC;align=left;verticalAlign=middle;spacingLeft=4;spacingRight=4;overflow=hidden;points=[[0,0.5],[1,0.5]];portConstraint=eastwest;rotatable=0;whiteSpace=wrap;html=1;" vertex="1" parent="436">
                    <mxGeometry y="30" width="140" height="30" as="geometry"/>
                </mxCell>
                <mxCell id="438" value="UserID -&amp;nbsp;&lt;span style=&quot;color: rgb(0, 0, 0);&quot;&gt;String&lt;/span&gt;" style="text;strokeColor=none;fillColor=#CCCCCC;align=left;verticalAlign=middle;spacingLeft=4;spacingRight=4;overflow=hidden;points=[[0,0.5],[1,0.5]];portConstraint=eastwest;rotatable=0;whiteSpace=wrap;html=1;" vertex="1" parent="436">
                    <mxGeometry y="60" width="140" height="30" as="geometry"/>
                </mxCell>
                <mxCell id="441" value="&lt;b&gt;&lt;i&gt;Returns:&lt;br&gt;&lt;/i&gt;&lt;/b&gt;" style="swimlane;fontStyle=0;childLayout=stackLayout;horizontal=1;startSize=30;horizontalStack=0;resizeParent=1;resizeParentMax=0;resizeLast=0;collapsible=1;marginBottom=0;whiteSpace=wrap;html=1;fillColor=#999999;" vertex="1" parent="1">
                    <mxGeometry x="2990" y="220" width="140" height="120" as="geometry"/>
                </mxCell>
                <mxCell id="442" value="&lt;span style=&quot;color: rgb(0, 0, 0);&quot;&gt;worked - bool&lt;/span&gt;" style="text;strokeColor=none;fillColor=#CCCCCC;align=left;verticalAlign=middle;spacingLeft=4;spacingRight=4;overflow=hidden;points=[[0,0.5],[1,0.5]];portConstraint=eastwest;rotatable=0;whiteSpace=wrap;html=1;" vertex="1" parent="441">
                    <mxGeometry y="30" width="140" height="30" as="geometry"/>
                </mxCell>
                <mxCell id="443" value="&lt;span style=&quot;color: rgb(0, 0, 0);&quot;&gt;Message - String&lt;/span&gt;" style="text;strokeColor=none;fillColor=#CCCCCC;align=left;verticalAlign=middle;spacingLeft=4;spacingRight=4;overflow=hidden;points=[[0,0.5],[1,0.5]];portConstraint=eastwest;rotatable=0;whiteSpace=wrap;html=1;" vertex="1" parent="441">
                    <mxGeometry y="60" width="140" height="30" as="geometry"/>
                </mxCell>
                <mxCell id="439" value="Room -&amp;nbsp;&lt;span style=&quot;color: rgb(0, 0, 0);&quot;&gt;Room&lt;/span&gt;" style="text;strokeColor=none;fillColor=#CCCCCC;align=left;verticalAlign=middle;spacingLeft=4;spacingRight=4;overflow=hidden;points=[[0,0.5],[1,0.5]];portConstraint=eastwest;rotatable=0;whiteSpace=wrap;html=1;" vertex="1" parent="441">
                    <mxGeometry y="90" width="140" height="30" as="geometry"/>
                </mxCell>
                <mxCell id="440" value="" style="endArrow=classic;html=1;entryX=0.5;entryY=0;entryDx=0;entryDy=0;" edge="1" parent="1" source="438" target="441">
                    <mxGeometry width="50" height="50" relative="1" as="geometry">
                        <mxPoint x="3050" y="132" as="sourcePoint"/>
                        <mxPoint x="3060" y="220" as="targetPoint"/>
                    </mxGeometry>
                </mxCell>
                <mxCell id="444" value="" style="endArrow=classic;html=1;fillColor=#f8cecc;strokeColor=#b85450;rounded=0;curved=1;dashed=1;entryX=0.5;entryY=0;entryDx=0;entryDy=0;exitX=0.5;exitY=1;exitDx=0;exitDy=0;edgeStyle=orthogonalEdgeStyle;" edge="1" parent="1" source="253" target="436">
                    <mxGeometry width="50" height="50" relative="1" as="geometry">
                        <mxPoint x="3990" y="175" as="sourcePoint"/>
                        <mxPoint x="-10" y="50" as="targetPoint"/>
                        <Array as="points">
                            <mxPoint x="3980" y="560"/>
                            <mxPoint x="3430" y="560"/>
                            <mxPoint x="3430"/>
                            <mxPoint x="3060"/>
                        </Array>
                    </mxGeometry>
                </mxCell>
                <mxCell id="445" value="" style="endArrow=classic;html=1;fillColor=#f8cecc;strokeColor=#b85450;rounded=0;curved=1;dashed=1;entryX=0.5;entryY=0;entryDx=0;entryDy=0;exitX=0.5;exitY=1;exitDx=0;exitDy=0;edgeStyle=orthogonalEdgeStyle;" edge="1" parent="1" source="224" target="436">
                    <mxGeometry width="50" height="50" relative="1" as="geometry">
                        <mxPoint x="3990" y="175" as="sourcePoint"/>
                        <mxPoint x="3070" y="50" as="targetPoint"/>
                        <Array as="points">
                            <mxPoint x="5040" y="570"/>
                            <mxPoint x="3440" y="570"/>
                            <mxPoint x="3440"/>
                            <mxPoint x="3060"/>
                        </Array>
                    </mxGeometry>
                </mxCell>
            </root>
        </mxGraphModel>
    </diagram>
</mxfile>